<?xml version="1.0" encoding="UTF-8" standalone="no"?>
<!-- Created with Inkscape (http://www.inkscape.org/) -->

<svg
   xmlns:dc="http://purl.org/dc/elements/1.1/"
   xmlns:cc="http://creativecommons.org/ns#"
   xmlns:rdf="http://www.w3.org/1999/02/22-rdf-syntax-ns#"
   xmlns:svg="http://www.w3.org/2000/svg"
   xmlns="http://www.w3.org/2000/svg"
   xmlns:sodipodi="http://sodipodi.sourceforge.net/DTD/sodipodi-0.dtd"
   xmlns:inkscape="http://www.inkscape.org/namespaces/inkscape"
   width="42.743057mm"
   height="22.529888mm"
   viewBox="0 0 151.45177 79.830314"
   id="svg2"
   version="1.1"
   inkscape:version="0.91 r13725"
   sodipodi:docname="round table.svg">
  <defs
     id="defs4">
    <clipPath
       id="clipEmfPath1"
       clipPathUnits="userSpaceOnUse">
      <path
         inkscape:connector-curvature="0"
         id="path3341"
         d="m 0,4.4748 579.038,0 0,305.1812 -579.038,0 z" />
    </clipPath>
    <pattern
       y="0"
       x="0"
       height="6"
       width="6"
       patternUnits="userSpaceOnUse"
       id="EMFhbasepattern" />
    <clipPath
       id="clipEmfPath1-1"
       clipPathUnits="userSpaceOnUse">
      <path
         inkscape:connector-curvature="0"
         id="path3488"
         d="m -0.894959,-0.894959 540.554959,0 0,287.281959 -540.554959,0 z" />
    </clipPath>
    <pattern
       y="0"
       x="0"
       height="6"
       width="6"
       patternUnits="userSpaceOnUse"
       id="EMFhbasepattern-2" />
  </defs>
  <sodipodi:namedview
     id="base"
     pagecolor="#ffffff"
     bordercolor="#666666"
     borderopacity="1.0"
     inkscape:pageopacity="0.0"
     inkscape:pageshadow="2"
     inkscape:zoom="0.98994949"
     inkscape:cx="66.086694"
     inkscape:cy="-83.45036"
     inkscape:document-units="px"
     inkscape:current-layer="layer1"
     showgrid="false"
     fit-margin-top="0"
     fit-margin-left="0"
     fit-margin-right="0"
     fit-margin-bottom="0"
     inkscape:window-width="1366"
     inkscape:window-height="705"
     inkscape:window-x="-8"
     inkscape:window-y="-8"
     inkscape:window-maximized="1" />
  <metadata
     id="metadata7">
    <rdf:RDF>
      <cc:Work
         rdf:about="">
        <dc:format>image/svg+xml</dc:format>
        <dc:type
           rdf:resource="http://purl.org/dc/dcmitype/StillImage" />
        <dc:title></dc:title>
      </cc:Work>
    </rdf:RDF>
  </metadata>
  <g
     inkscape:label="Layer 1"
     inkscape:groupmode="layer"
     id="layer1"
     transform="translate(-308.91331,-369.08153)">
    <path
       inkscape:connector-curvature="0"
       id="path3491"
       d="m 384.77319,443.17361 c -10.21334,0 -18.50107,0.63133 -18.50107,1.4049 l 0,2.7782 c 0,0.77357 8.28773,1.38938 18.50107,1.38938 10.21363,0 18.50136,-0.61581 18.50136,-1.38938 l 0,-2.7782 c 0,-0.77357 -8.28773,-1.4049 -18.50136,-1.4049 z"
       style="fill:#000000;fill-opacity:1;fill-rule:evenodd;stroke:none" />
    <path
       inkscape:connector-curvature="0"
       id="path3493"
       d="m 366.27212,444.57851 c 0,0.75777 8.28773,1.3891 18.50107,1.3891 10.21363,0 18.50136,-0.63133 18.50136,-1.3891 0,-0.77357 -8.28773,-1.4049 -18.50136,-1.4049 -10.21334,0 -18.50107,0.63133 -18.50107,1.4049 z"
       style="fill:#323232;fill-opacity:1;fill-rule:evenodd;stroke:none" />
    <path
       inkscape:connector-curvature="0"
       id="path3495"
       d="m 384.77319,443.17361 c -10.21334,0 -18.50107,0.63133 -18.50107,1.4049 l 0,2.7782 c 0,0.77357 8.28773,1.38938 18.50107,1.38938 10.21363,0 18.50136,-0.61581 18.50136,-1.38938 l 0,-2.7782 c 0,-0.77357 -8.28773,-1.4049 -18.50136,-1.4049 z"
       style="fill:none;stroke:#000000;stroke-width:0.33150774px;stroke-linecap:butt;stroke-linejoin:round;stroke-miterlimit:4;stroke-dasharray:none;stroke-opacity:1" />
    <path
       inkscape:connector-curvature="0"
       id="path3497"
       d="m 366.27212,444.57851 c 0,0.75777 8.28773,1.3891 18.50107,1.3891 10.21363,0 18.50136,-0.63133 18.50136,-1.3891"
       style="fill:none;stroke:#000000;stroke-width:0.33150774px;stroke-linecap:butt;stroke-linejoin:round;stroke-miterlimit:4;stroke-dasharray:none;stroke-opacity:1" />
    <path
       inkscape:connector-curvature="0"
       id="path3499"
       d="m 384.63124,388.82204 c -1.23134,0 -2.22589,0.12627 -2.22589,0.26834 l 0,55.03037 c 0,0.14196 0.99455,0.25259 2.22589,0.25259 1.23133,0 2.22588,-0.11063 2.22588,-0.25259 l 0,-55.03037 c 0,-0.14207 -0.99455,-0.26834 -2.22588,-0.26834 z"
       style="fill:#9f5d0d;fill-opacity:1;fill-rule:evenodd;stroke:none" />
    <path
       inkscape:connector-curvature="0"
       id="path3501"
       d="m 382.40535,389.09038 c 0,0.1421 0.99455,0.26837 2.22589,0.26837 1.23133,0 2.22588,-0.12627 2.22588,-0.26837 0,-0.14207 -0.99455,-0.26834 -2.22588,-0.26834 -1.23134,0 -2.22589,0.12627 -2.22589,0.26834 z"
       style="fill:#b27d3c;fill-opacity:1;fill-rule:evenodd;stroke:none" />
    <path
       inkscape:connector-curvature="0"
       id="path3503"
       d="m 384.63124,388.82204 c -1.23134,0 -2.22589,0.12627 -2.22589,0.26834 l 0,55.03037 c 0,0.14196 0.99455,0.25259 2.22589,0.25259 1.23133,0 2.22588,-0.11063 2.22588,-0.25259 l 0,-55.03037 c 0,-0.14207 -0.99455,-0.26834 -2.22588,-0.26834 z"
       style="fill:none;stroke:#000000;stroke-width:0.33150774px;stroke-linecap:butt;stroke-linejoin:round;stroke-miterlimit:4;stroke-dasharray:none;stroke-opacity:1" />
    <path
       inkscape:connector-curvature="0"
       id="path3505"
       d="m 382.40535,389.09038 c 0,0.1421 0.99455,0.26837 2.22589,0.26837 1.23133,0 2.22588,-0.12627 2.22588,-0.26837"
       style="fill:none;stroke:#000000;stroke-width:0.33150774px;stroke-linecap:butt;stroke-linejoin:round;stroke-miterlimit:4;stroke-dasharray:none;stroke-opacity:1" />
    <path
       inkscape:connector-curvature="0"
       id="path3507"
       d="m 384.64704,369.24729 c -41.73841,0 -75.56797,2.54157 -75.56797,5.68299 l 0,11.38176 c 0,3.14145 33.82956,5.683 75.56797,5.683 41.72261,0 75.5523,-2.54155 75.5523,-5.683 l 0,-11.38176 c 0,-3.14142 -33.82969,-5.68299 -75.5523,-5.68299 z"
       style="fill:#000000;fill-opacity:1;fill-rule:evenodd;stroke:none" />
    <path
       inkscape:connector-curvature="0"
       id="path3509"
       d="m 309.07907,374.93028 c 0,3.14144 33.82956,5.69877 75.56797,5.69877 41.72261,0 75.5523,-2.55733 75.5523,-5.69877 0,-3.14142 -33.82969,-5.68299 -75.5523,-5.68299 -41.73841,0 -75.56797,2.54157 -75.56797,5.68299 z"
       style="fill:#323232;fill-opacity:1;fill-rule:evenodd;stroke:none" />
    <path
       transform="matrix(0.28222222,0,0,0.28222222,308.46341,368.60006)"
       inkscape:connector-curvature="0"
       id="path3511"
       d="M 269.942,2.29333 C 122.05,2.29333 2.18146,11.2989 2.18146,22.4299 l 0,40.3291 c 0,11.1311 119.86854,20.1366 267.76054,20.1366 147.836,0 267.705,-9.0055 267.705,-20.1366 l 0,-40.3291 c 0,-11.131 -119.869,-20.13657 -267.705,-20.13657 z"
       clip-path="url(#clipEmfPath1-1)"
       style="fill:none;stroke:#000000;stroke-width:1.17463374px;stroke-linecap:butt;stroke-linejoin:round;stroke-miterlimit:4;stroke-dasharray:none;stroke-opacity:1" />
    <path
       transform="matrix(0.28222222,0,0,0.28222222,308.46341,368.60006)"
       inkscape:connector-curvature="0"
       id="path3513"
       d="m 2.18146,22.4299 c 0,11.1311 119.86854,20.1925 267.76054,20.1925 147.836,0 267.705,-9.0614 267.705,-20.1925"
       clip-path="url(#clipEmfPath1-1)"
       style="fill:none;stroke:#000000;stroke-width:1.17463374px;stroke-linecap:butt;stroke-linejoin:round;stroke-miterlimit:4;stroke-dasharray:none;stroke-opacity:1" />
  </g>
</svg>
