<svg xmlns="http://www.w3.org/2000/svg">
    <symbol id="filter" viewBox="0 0 24 24">
        <path fill="currentColor" d="M15 19.88c.04.3-.06.62-.29.83a.996.996 0 0 1-1.41 0L9.29 16.7a.99.99 0 0 1-.29-.83v-5.12L4.21 4.62a1 1 0 0 1 .17-1.4c.19-.14.4-.22.62-.22h14c.22 0 .43.08.62.22a1 1 0 0 1 .17 1.4L15 10.75zM7.04 5L11 10.06v5.52l2 2v-7.53L16.96 5z" />
    </symbol>
    <symbol id="dashed-outline" viewBox="0 0 24 24">
        <path fill="none" stroke="currentColor" stroke-linecap="round" stroke-linejoin="round" stroke-width="2" d="M5 3a2 2 0 0 0-2 2m16-2a2 2 0 0 1 2 2m0 14a2 2 0 0 1-2 2M5 21a2 2 0 0 1-2-2M9 3h1M9 21h1m4-18h1m-1 18h1M3 9v1m18-1v1M3 14v1m18-1v1" />
    </symbol>
    <symbol id="fill" viewBox="0 0 24 24">
        <g fill="none" fill-rule="evenodd">
            <path d="m12.594 23.258l-.012.002l-.071.035l-.02.004l-.014-.004l-.071-.036q-.016-.004-.024.006l-.004.01l-.017.428l.005.02l.01.013l.104.074l.015.004l.012-.004l.104-.074l.012-.016l.004-.017l-.017-.427q-.004-.016-.016-.018m.264-.113l-.014.002l-.184.093l-.01.01l-.003.011l.018.43l.005.012l.008.008l.201.092q.019.005.029-.008l.004-.014l-.034-.614q-.005-.019-.02-.022m-.715.002a.02.02 0 0 0-.027.006l-.006.014l-.034.614q.001.018.017.024l.015-.002l.201-.093l.01-.008l.003-.011l.018-.43l-.003-.012l-.01-.01z" />
            <path fill="currentColor" d="M2 6a2 2 0 0 1 2-2h16a2 2 0 0 1 2 2v12a2 2 0 0 1-2 2H4a2 2 0 0 1-2-2z" />
        </g>
    </symbol>
    <symbol id="list" viewBox="0 0 24 24">
        <path fill="currentColor" d="M6.667 2.666H28A1.334 1.334 0 0 0 28.002 0H6.667a1.334 1.334 0 0 0-.002 2.666zm21.332 2.667H6.666l-.037-.001a1.334 1.334 0 1 0 0 2.668l.039-.001h-.002h21.333a1.334 1.334 0 0 0 .002-2.666zm0 5.334H6.666a1.334 1.334 0 0 0-.002 2.666h21.335a1.334 1.334 0 0 0 .002-2.666zm0 10.666H6.666a1.334 1.334 0 0 0-.002 2.666h21.335a1.334 1.334 0 0 0 .002-2.666zm0-5.333H6.666a1.334 1.334 0 0 0-.002 2.666h21.335A1.334 1.334 0 0 0 28.001 16zM1.334 0h-.002a1.334 1.334 0 1 0 .002 0m0 5.333h-.002a1.334 1.334 0 1 0 .002 0m0 5.334h-.002a1.334 1.334 0 1 0 .002 0m0 10.666h-.002a1.334 1.334 0 1 0 .002 0m0-5.333h-.002a1.334 1.334 0 1 0 .002 0" />
    </symbol>
    <symbol id="users-list" viewBox="0 0 24 24">
        <path fill="none" stroke="currentColor" stroke-linecap="round" stroke-linejoin="round" stroke-width="1.5" d="M5.08 15.296c-1.218.738-4.412 2.243-2.466 4.126c.95.92 2.009 1.578 3.34 1.578h7.593c1.33 0 2.389-.658 3.34-1.578c1.945-1.883-1.25-3.389-2.468-4.126a9.06 9.06 0 0 0-9.338 0M13.5 7a4 4 0 1 1-8 0a4 4 0 0 1 8 0M17 5h5m-5 3h5m-2 3h2" color="currentColor" />
    </symbol>
    <symbol id="bookmark" fill="none" viewBox="0 0 24 24" stroke="currentColor">
        <path fill="currentColor" d="M9 5.25a.75.75 0 0 0 0 1.5h6a.75.75 0 0 0 0-1.5z" />
        <path fill="currentColor" fill-rule="evenodd" d="M11.943 1.25c-2.073 0-3.706 0-4.982.173c-1.31.178-2.355.552-3.176 1.382c-.82.829-1.188 1.882-1.364 3.202c-.171 1.289-.171 2.938-.171 5.034v5.098c0 1.508 0 2.701.096 3.6c.095.888.298 1.689.88 2.225c.466.43 1.056.7 1.686.773c.787.09 1.522-.286 2.247-.8c.733-.518 1.622-1.305 2.744-2.297l.036-.032c.52-.46.872-.77 1.166-.986c.284-.207.457-.282.603-.312a1.5 1.5 0 0 1 .584 0c.146.03.32.105.603.312c.294.215.646.526 1.166.986l.037.032c1.121.992 2.01 1.779 2.743 2.298c.725.513 1.46.889 2.247.799a3 3 0 0 0 1.686-.773c.581-.536.785-1.337.88-2.225c.096-.899.096-2.092.096-3.6v-5.098c0-2.096 0-3.746-.171-5.034c-.176-1.32-.544-2.373-1.364-3.202c-.821-.83-1.866-1.204-3.176-1.382c-1.276-.173-2.909-.173-4.982-.173zM4.85 3.86c.497-.502 1.172-.795 2.312-.95c1.163-.158 2.694-.16 4.837-.16s3.674.002 4.837.16c1.14.155 1.815.448 2.312.95c.498.503.789 1.188.943 2.345c.156 1.178.158 2.727.158 4.893v4.993c0 1.566-.001 2.68-.087 3.488c-.09.83-.253 1.141-.405 1.282c-.234.215-.528.35-.84.385c-.2.023-.534-.054-1.21-.532c-.658-.467-1.487-1.198-2.653-2.23l-.026-.023c-.488-.431-.892-.788-1.249-1.05c-.373-.272-.749-.482-1.192-.571a3 3 0 0 0-1.176 0c-.443.09-.82.299-1.192.572c-.357.26-.761.618-1.249 1.049l-.026.023c-1.166 1.032-1.995 1.763-2.653 2.23c-.676.478-1.01.555-1.21.532a1.5 1.5 0 0 1-.84-.385c-.152-.141-.316-.452-.404-1.282c-.087-.809-.088-1.922-.088-3.488v-4.994c0-2.165.002-3.714.158-4.892c.154-1.157.445-1.842.943-2.345" clip-rule="evenodd" />
    </symbol>
    <symbol id="clock" fill="none" viewBox="0 0 24 24" stroke="currentColor">
        <path stroke-linecap="round" stroke-linejoin="round" stroke-width="2" d="M12 8v4l3 3m6-3a9 9 0 11-18 0 9 9 0 0118 0z"/>
    </symbol>
    <symbol id="check" fill="none" viewBox="0 0 24 24" stroke="currentColor">
        <path stroke-linecap="round" stroke-linejoin="round" stroke-width="2" d="M5 13l4 4L19 7"/>
    </symbol>
    <symbol id="euro" fill="none" viewBox="0 0 24 24" stroke="currentColor">
        <path stroke-linecap="round" stroke-linejoin="round" stroke-width="2" d="M14.121 15.536c-1.171 1.952-3.07 1.952-4.242 0-1.172-1.953-1.172-5.119 0-7.072 1.171-1.952 3.07-1.952 4.242 0M8 10.5h4m-4 3h4m9-1.5a9 9 0 11-18 0 9 9 0 0118 0z"/>
    </symbol>
    <symbol id="calendar" fill="none" viewBox="0 0 24 24" stroke="currentColor">
        <path stroke-linecap="round" stroke-linejoin="round" stroke-width="2" d="M8 7V3m8 4V3m-9 8h10M5 21h14a2 2 0 002-2V7a2 2 0 00-2-2H5a2 2 0 00-2 2v12a2 2 0 002 2z"/>
    </symbol>
    <symbol id="users" fill="none" viewBox="0 0 24 24" stroke="currentColor">
        <path stroke-linecap="round" stroke-linejoin="round" stroke-width="2" d="M12 4.354a4 4 0 110 5.292M15 21H3v-1a6 6 0 0112 0v1zm0 0h6v-1a6 6 0 00-9-5.197M13 7a4 4 0 11-8 0 4 4 0 018 0z"/>
    </symbol>
    <symbol id="home" fill="none" viewBox="0 0 24 24" stroke="currentColor">
        <path stroke-linecap="round" stroke-linejoin="round" stroke-width="2" d="M3 12l2-2m0 0l7-7 7 7M5 10v10a1 1 0 001 1h3m10-11l2 2m-2-2v10a1 1 0 01-1 1h-3m-6 0a1 1 0 001-1v-4a1 1 0 011-1h2a1 1 0 011 1v4a1 1 0 001 1m-6 0h6"/>
    </symbol>
    <symbol id="search" fill="none" viewBox="0 0 24 24" stroke="currentColor">
        <path stroke-linecap="round" stroke-linejoin="round" stroke-width="2" d="M21 21l-6-6m2-5a7 7 0 11-14 0 7 7 0 0114 0z"/>
    </symbol>
    <symbol id="trash" fill="none" viewBox="0 0 24 24" stroke="currentColor">
        <path stroke-linecap="round" stroke-linejoin="round" stroke-width="2" d="M19 7l-.867 12.142A2 2 0 0116.138 21H7.862a2 2 0 01-1.995-1.858L5 7m5 4v6m4-6v6m1-10V4a1 1 0 00-1-1h-4a1 1 0 00-1 1v3M4 7h16"/>
    </symbol>
    <symbol id="close" fill="none" viewBox="0 0 24 24" stroke="currentColor">
        <path stroke-linecap="round" stroke-linejoin="round" stroke-width="2" d="M6 18L18 6M6 6l12 12"/>
    </symbol>
    <symbol id="logout" fill="none" viewBox="0 0 24 24" stroke="currentColor">
        <path stroke-linecap="round" stroke-linejoin="round" stroke-width="2" d="M17 16l4-4m0 0l-4-4m4 4H7m6 4v1a3 3 0 01-3 3H6a3 3 0 01-3-3V7a3 3 0 013-3h4a3 3 0 013 3v1"/>
    </symbol>
    <symbol id="moon" fill="none" viewBox="0 0 24 24" stroke="currentColor">
        <path stroke-linecap="round" stroke-linejoin="round" stroke-width="2" d="M20.354 15.354A9 9 0 018.646 3.646 9.003 9.003 0 0012 21a9.003 9.003 0 008.354-5.646z"/>
    </symbol>
    <symbol id="sun" fill="none" viewBox="0 0 24 24" stroke="currentColor">
        <path stroke-linecap="round" stroke-linejoin="round" stroke-width="2" d="M12 3v1m0 16v1m9-9h-1M4 12H3m15.364 6.364l-.707-.707M6.343 6.343l-.707-.707m12.728 0l-.707.707M6.343 17.657l-.707.707M16 12a4 4 0 11-8 0 4 4 0 018 0z"/>
    </symbol>
    <symbol id="status-offline" fill="none" viewBox="0 0 24 24" stroke="currentColor">
        <path stroke-linecap="round" stroke-linejoin="round" stroke-width="2" d="M18.364 5.636a9 9 0 010 12.728m0 0l-2.829-2.829m2.829 2.829L21 21M15.536 8.464a5 5 0 010 7.072m0 0l-2.829-2.829m-4.243 2.829a4.978 4.978 0 01-1.414-2.83m-1.414 5.658a9 9 0 01-2.167-9.238m7.824 2.167a1 1 0 111.414 1.414m-1.414-1.414L3 3m8.293 8.293l1.414 1.414"/>
    </symbol>
    <symbol id="status-online" fill="none" viewBox="0 0 24 24" stroke="currentColor">
        <path stroke-linecap="round" stroke-linejoin="round" stroke-width="2" d="M5.636 18.364a9 9 0 010-12.728m12.728 0a9 9 0 010 12.728m-9.9-2.829a5 5 0 010-7.07m7.072 0a5 5 0 010 7.07M13 12a1 1 0 11-2 0 1 1 0 012 0z"/>
    </symbol>
    <symbol id="menu" fill="none" viewBox="0 0 24 24" stroke="currentColor">
        <path stroke-linecap="round" stroke-linejoin="round" stroke-width="2" d="M4 6h16M4 12h16M4 18h16"/>
    </symbol>
    <symbol id="user-circle" fill="none" viewBox="0 0 24 24" stroke="currentColor">
        <path stroke-linecap="round" stroke-linejoin="round" stroke-width="2" d="M5.121 17.804A13.937 13.937 0 0112 16c2.5 0 4.847.655 6.879 1.804M15 10a3 3 0 11-6 0 3 3 0 016 0zm6 2a9 9 0 11-18 0 9 9 0 0118 0z" />
    </symbol>
    <symbol id="arrow-expand" fill="none" viewBox="0 0 24 24" stroke="currentColor">
        <path stroke-linecap="round" stroke-linejoin="round" stroke-width="2" d="M4 8V4m0 0h4M4 4l5 5m11-1V4m0 0h-4m4 0l-5 5M4 16v4m0 0h4m-4 0l5-5m11 5l-5-5m5 5v-4m0 4h-4" />
    </symbol>
    <symbol id="eye-open" fill="none" viewBox="0 0 24 24" stroke="currentColor">
        <path stroke-linecap="round" stroke-linejoin="round" stroke-width="2" d="M15 12a3 3 0 11-6 0 3 3 0 016 0z" />
        <path stroke-linecap="round" stroke-linejoin="round" stroke-width="2" d="M2.458 12C3.732 7.943 7.523 5 12 5c4.478 0 8.268 2.943 9.542 7-1.274 4.057-5.064 7-9.542 7-4.477 0-8.268-2.943-9.542-7z" />
    </symbol>
    <symbol id="eye-off" fill="none" viewBox="0 0 24 24" stroke="currentColor">
        <path stroke-linecap="round" stroke-linejoin="round" stroke-width="2" d="M13.875 18.825A10.05 10.05 0 0112 19c-4.478 0-8.268-2.943-9.543-7a9.97 9.97 0 011.563-3.029m5.858.908a3 3 0 114.243 4.243M9.878 9.878l4.242 4.242M9.88 9.88l-3.29-3.29m7.532 7.532l3.29 3.29M3 3l3.59 3.59m0 0A9.953 9.953 0 0112 5c4.478 0 8.268 2.943 9.543 7a10.025 10.025 0 01-4.132 5.411m0 0L21 21" />
    </symbol>
    <symbol id="plus" fill="none" viewBox="0 0 24 24" stroke="currentColor">
        <path stroke-linecap="round" stroke-linejoin="round" stroke-width="2" d="M12 6v6m0 0v6m0-6h6m-6 0H6" />
    </symbol>
    <symbol id="selector" fill="none" viewBox="0 0 24 24" stroke="currentColor">
        <path stroke-linecap="round" stroke-linejoin="round" stroke-width="2" d="M8 9l4-4 4 4m0 6l-4 4-4-4" />
    </symbol>
    <symbol id="save" fill="none" viewBox="0 0 24 24" stroke="currentColor">
        <path stroke-linecap="round" stroke-linejoin="round" stroke-width="2" d="M8 7H5a2 2 0 00-2 2v9a2 2 0 002 2h14a2 2 0 002-2V9a2 2 0 00-2-2h-3m-1 4l-3 3m0 0l-3-3m3 3V4" />
    </symbol>
    <symbol id="chevron-down" viewBox="0 0 24 24">
        <path fill="none" stroke="currentColor" stroke-linecap="round" stroke-linejoin="round" stroke-width="2" d="m4 9l8 8l8-8"/>
    </symbol>
    <symbol id="chevron-up" viewBox="0 0 24 24">
        <path fill="none" stroke="currentColor" stroke-linecap="round" stroke-linejoin="round" stroke-width="2" d="m4 15l8-8l8 8"/>
    </symbol>
    <symbol id="chevron-left" viewBox="0 0 24 24">
        <path fill="none" stroke="currentColor" stroke-linecap="round" stroke-linejoin="round" stroke-width="2" d="m15 4l-8 8l8 8"/>
    </symbol>
    <symbol id="chevron-right" viewBox="0 0 24 24" stroke="currentColor">
        <path fill="none" stroke="currentColor" stroke-linecap="round" stroke-linejoin="round" stroke-width="2" d="m8 4l8 8l-8 8"/>
    </symbol>
    <symbol id="chevron-double-right" fill="none" viewBox="0 0 24 24" stroke="currentColor">
        <path stroke-linecap="round" stroke-linejoin="round" stroke-width="2" d="M13 5l7 7-7 7M5 5l7 7-7 7" />
    </symbol>
    <symbol id="error" fill="none" viewBox="0 0 24 24" stroke="currentColor">
        <path stroke-linecap="round" stroke-linejoin="round" stroke-width="2" d="M12 8v4m0 4h.01M21 12a9 9 0 11-18 0 9 9 0 0118 0z" />
    </symbol>
    <symbol id="at-symbol" fill="none" viewBox="0 0 24 24" stroke="currentColor">
        <path stroke-linecap="round" stroke-linejoin="round" stroke-width="2" d="M16 12a4 4 0 10-8 0 4 4 0 008 0zm0 0v1.5a2.5 2.5 0 005 0V12a9 9 0 10-9 9m4.5-1.206a8.959 8.959 0 01-4.5 1.207" />
    </symbol>
    <symbol id="camera" fill="none" viewBox="0 0 24 24" stroke="currentColor">
        <path stroke-linecap="round" stroke-linejoin="round" stroke-width="2" d="M3 9a2 2 0 012-2h.93a2 2 0 001.664-.89l.812-1.22A2 2 0 0110.07 4h3.86a2 2 0 011.664.89l.812 1.22A2 2 0 0018.07 7H19a2 2 0 012 2v9a2 2 0 01-2 2H5a2 2 0 01-2-2V9z" />
        <path stroke-linecap="round" stroke-linejoin="round" stroke-width="2" d="M15 13a3 3 0 11-6 0 3 3 0 016 0z" />
    </symbol>
    <symbol id="key" fill="none" viewBox="0 0 24 24" stroke="currentColor">
        <path stroke-linecap="round" stroke-linejoin="round" stroke-width="2" d="M15 7a2 2 0 012 2m4 0a6 6 0 01-7.743 5.743L11 17H9v2H7v2H4a1 1 0 01-1-1v-2.586a1 1 0 01.293-.707l5.964-5.964A6 6 0 1121 9z" />
    </symbol>
    <symbol id="pencil" fill="none" viewBox="0 0 24 24" stroke="currentColor">
        <path stroke-linecap="round" stroke-linejoin="round" stroke-width="2" d="M15.232 5.232l3.536 3.536m-2.036-5.036a2.5 2.5 0 113.536 3.536L6.5 21.036H3v-3.572L16.732 3.732z" />
    </symbol>
    <symbol id="fire" fill="none" viewBox="0 0 24 24" stroke="currentColor">
        <svg xmlns="http://www.w3.org/2000/svg" fill="none" viewBox="0 0 24 24" stroke="currentColor">
            <path stroke-linecap="round" stroke-linejoin="round" stroke-width="2" d="M17.657 18.657A8 8 0 016.343 7.343S7 9 9 10c0-2 .5-5 2.986-7C14 5 16.09 5.777 17.656 7.343A7.975 7.975 0 0120 13a7.975 7.975 0 01-2.343 5.657z" />
            <path stroke-linecap="round" stroke-linejoin="round" stroke-width="2" d="M9.879 16.121A3 3 0 1012.015 11L11 14H9c0 .768.293 1.536.879 2.121z" />
        </svg>
    </symbol>
    <symbol id="info" fill="none" viewBox="0 0 24 24" stroke="currentColor">
        <svg xmlns="http://www.w3.org/2000/svg" fill="none" viewBox="0 0 24 24" stroke="currentColor">
            <path stroke-linecap="round" stroke-linejoin="round" stroke-width="2" d="M13 16h-1v-4h-1m1-4h.01M21 12a9 9 0 11-18 0 9 9 0 0118 0z" />
        </svg>
    </symbol>
    <symbol id="copy" fill="none" viewBox="0 0 24 24" stroke="currentColor">
        <path fill="currentColor" fill-rule="evenodd" d="M15 1.25h-4.056c-1.838 0-3.294 0-4.433.153c-1.172.158-2.121.49-2.87 1.238c-.748.749-1.08 1.698-1.238 2.87c-.153 1.14-.153 2.595-.153 4.433V16a3.75 3.75 0 0 0 3.166 3.705c.137.764.402 1.416.932 1.947c.602.602 1.36.86 2.26.982c.867.116 1.97.116 3.337.116h3.11c1.367 0 2.47 0 3.337-.116c.9-.122 1.658-.38 2.26-.982s.86-1.36.982-2.26c.116-.867.116-1.97.116-3.337v-5.11c0-1.367 0-2.47-.116-3.337c-.122-.9-.38-1.658-.982-2.26c-.531-.53-1.183-.795-1.947-.932A3.75 3.75 0 0 0 15 1.25m2.13 3.021A2.25 2.25 0 0 0 15 2.75h-4c-1.907 0-3.261.002-4.29.14c-1.005.135-1.585.389-2.008.812S4.025 4.705 3.89 5.71c-.138 1.029-.14 2.383-.14 4.29v6a2.25 2.25 0 0 0 1.521 2.13c-.021-.61-.021-1.3-.021-2.075v-5.11c0-1.367 0-2.47.117-3.337c.12-.9.38-1.658.981-2.26c.602-.602 1.36-.86 2.26-.981c.867-.117 1.97-.117 3.337-.117h3.11c.775 0 1.464 0 2.074.021M7.408 6.41c.277-.277.665-.457 1.4-.556c.754-.101 1.756-.103 3.191-.103h3c1.435 0 2.436.002 3.192.103c.734.099 1.122.28 1.399.556c.277.277.457.665.556 1.4c.101.754.103 1.756.103 3.191v5c0 1.435-.002 2.436-.103 3.192c-.099.734-.28 1.122-.556 1.399c-.277.277-.665.457-1.4.556c-.755.101-1.756.103-3.191.103h-3c-1.435 0-2.437-.002-3.192-.103c-.734-.099-1.122-.28-1.399-.556c-.277-.277-.457-.665-.556-1.4c-.101-.755-.103-1.756-.103-3.191v-5c0-1.435.002-2.437.103-3.192c.099-.734.28-1.122.556-1.399" clip-rule="evenodd" />
    </symbol>
    <symbol id="grid" fill="none" viewBox="0 0 24 24" stroke="currentColor">
        <svg xmlns="http://www.w3.org/2000/svg" width="24" height="24" viewBox="0 0 512 512"><rect x="0" y="0" width="512" height="512" fill="none" stroke="none" /><path fill="currentColor" d="M47.547 63.547v384.906a16 16 0 0 0 16 16h384.906a16 16 0 0 0 16-16V63.547a16 16 0 0 0-16-16H63.547a16 16 0 0 0-16 16Zm288.6 16h96.3v96.3h-96.3Zm0 128.3h96.3v96.3h-96.3Zm0 128.3h96.3v96.3h-96.3Zm-128.3-256.6h96.3v96.3h-96.3Zm0 128.3h96.3v96.3h-96.3Zm0 128.3h96.3v96.3h-96.3Zm-128.3-256.6h96.3v96.3h-96.3Zm0 128.3h96.3v96.3h-96.3Zm0 128.3h96.3v96.3h-96.3Z"/></svg>
    </symbol>
    <symbol id="stack" fill="none" viewBox="0 0 24 24" stroke="currentColor">
        <svg xmlns="http://www.w3.org/2000/svg" width="24" height="24" viewBox="0 0 16 16"><rect x="0" y="0" width="16" height="16" fill="none" stroke="none" /><g fill="currentColor"><path d="m14.12 10.163l1.715.858c.22.11.22.424 0 .534L8.267 15.34a.598.598 0 0 1-.534 0L.165 11.555a.299.299 0 0 1 0-.534l1.716-.858l5.317 2.659c.505.252 1.1.252 1.604 0l5.317-2.66zM7.733.063a.598.598 0 0 1 .534 0l7.568 3.784a.3.3 0 0 1 0 .535L8.267 8.165a.598.598 0 0 1-.534 0L.165 4.382a.299.299 0 0 1 0-.535L7.733.063z"/><path d="m14.12 6.576l1.715.858c.22.11.22.424 0 .534l-7.568 3.784a.598.598 0 0 1-.534 0L.165 7.968a.299.299 0 0 1 0-.534l1.716-.858l5.317 2.659c.505.252 1.1.252 1.604 0l5.317-2.659z"/></g></svg>
    </symbol>

    <symbol id="color-picker" fill="none" viewBox="0 0 24 24" stroke="currentColor">
        <svg xmlns="http://www.w3.org/2000/svg" width="24" height="24" viewBox="0 0 20 20"><rect x="0" y="0" width="20" height="20" fill="none" stroke="none" /><g fill="currentColor"><path fill-rule="evenodd" d="M16.324 6.717a2.5 2.5 0 0 0-3.535-3.535l-8.975 8.975l-.112.17c-.165.417-.366.827-.865 1.797c-1.255 2.436-1.455 2.935-.923 3.468c.533.533 1.032.332 3.468-.923c.97-.5 1.38-.7 1.798-.865l.17-.112l8.974-8.975Zm-.707-2.828a1.5 1.5 0 0 1 0 2.121l-8.903 8.903c-.426.174-.858.387-1.79.867c-.95.49-1.351.687-1.766.853a3.757 3.757 0 0 1-.435.15c.031-.118.08-.264.15-.435c.166-.414.364-.816.853-1.766c.48-.932.693-1.364.867-1.79l8.903-8.903a1.5 1.5 0 0 1 2.121 0Z" clip-rule="evenodd"/><path d="M9.851 3.824a.5.5 0 0 1 .707-.707l5.657 5.657a.5.5 0 1 1-.707.707L9.85 3.824Z"/></g></svg>
    </symbol>

    <symbol id="undo" fill="none" viewBox="0 0 24 24" stroke="currentColor">
        <svg xmlns="http://www.w3.org/2000/svg" width="24" height="24" viewBox="0 0 48 48"><rect x="0" y="0" width="48" height="48" fill="none" stroke="none" /><g fill="none" stroke="currentColor" stroke-linecap="round" stroke-linejoin="round" stroke-width="4"><path d="M11.272 36.728A17.943 17.943 0 0 0 24 42c9.941 0 18-8.059 18-18S33.941 6 24 6c-4.97 0-9.47 2.015-12.728 5.272C9.614 12.93 6 17 6 17"/><path d="M6 9v8h8"/></g></svg>
    </symbol>

    <symbol id="redo" fill="none" viewBox="0 0 24 24" stroke="currentColor">
        <svg xmlns="http://www.w3.org/2000/svg" width="24" height="24" viewBox="0 0 48 48"><rect x="0" y="0" width="48" height="48" fill="none" stroke="none" /><g fill="none" stroke="currentColor" stroke-linecap="round" stroke-linejoin="round" stroke-width="4"><path d="M36.728 36.728A17.943 17.943 0 0 1 24 42c-9.941 0-18-8.059-18-18S14.059 6 24 6c4.97 0 9.47 2.015 12.728 5.272C38.386 12.93 42 17 42 17"/><path d="M42 8v9h-9"/></g></svg>
    </symbol>

    <symbol id="export" fill="none" viewBox="0 0 24 24" stroke="currentColor">
        <svg xmlns="http://www.w3.org/2000/svg" width="24" height="24" viewBox="0 0 24 24"><rect x="0" y="0" width="24" height="24" fill="none" stroke="none" /><g fill="none" stroke="currentColor" stroke-linecap="round" stroke-width="1.5"><path d="M4 12a8 8 0 1 0 16 0"/><path stroke-linejoin="round" d="M12 14V4m0 0l3 3m-3-3L9 7"/></g></svg>
    </symbol>
    <symbol id="import" viewBox="0 0 24 24">
        <g fill="none" fill-rule="evenodd"><path d="m12.593 23.258l-.011.002l-.071.035l-.02.004l-.014-.004l-.071-.035q-.016-.005-.024.005l-.004.01l-.017.428l.005.02l.01.013l.104.074l.015.004l.012-.004l.104-.074l.012-.016l.004-.017l-.017-.427q-.004-.016-.017-.018m.265-.113l-.013.002l-.185.093l-.01.01l-.003.011l.018.43l.005.012l.008.007l.201.093q.019.005.029-.008l.004-.014l-.034-.614q-.005-.018-.02-.022m-.715.002a.02.02 0 0 0-.027.006l-.006.014l-.034.614q.001.018.017.024l.015-.002l.201-.093l.01-.008l.004-.011l.017-.43l-.003-.012l-.01-.01z"/><path fill="currentColor" d="M13.586 2a2 2 0 0 1 1.284.467l.13.119L19.414 7a2 2 0 0 1 .578 1.238l.008.176V20a2 2 0 0 1-1.85 1.995L18 22h-6v-2h6V10h-4.5a1.5 1.5 0 0 1-1.493-1.356L12 8.5V4H6v8H4V4a2 2 0 0 1 1.85-1.995L6 2zM7.707 14.465l2.829 2.828a1 1 0 0 1 0 1.414l-2.829 2.828a1 1 0 1 1-1.414-1.414L7.414 19H3a1 1 0 1 1 0-2h4.414l-1.121-1.121a1 1 0 1 1 1.414-1.415ZM14 4.414V8h3.586z"/></g>
    </symbol>

    <symbol id="full-screen" fill="none" viewBox="0 0 24 24" stroke="currentColor">
        <svg xmlns="http://www.w3.org/2000/svg" width="24" height="24" viewBox="0 0 24 24"><rect x="0" y="0" width="24" height="24" fill="none" stroke="none" /><path fill="currentColor" d="M21 3v6h-2V6.41l-3.29 3.3l-1.42-1.42L17.59 5H15V3zM3 3v6h2V6.41l3.29 3.3l1.42-1.42L6.41 5H9V3zm18 18v-6h-2v2.59l-3.29-3.29l-1.41 1.41L17.59 19H15v2zM9 21v-2H6.41l3.29-3.29l-1.41-1.42L5 17.59V15H3v6z"/></svg>
    </symbol>

    <symbol id="transfer" fill="none" viewBox="0 0 24 24" stroke="currentColor">
        <svg xmlns="http://www.w3.org/2000/svg" width="24" height="24" viewBox="0 0 24 24"><rect x="0" y="0" width="24" height="24" fill="none" stroke="none" /><path fill="currentColor" d="m15 12l5-4l-5-4v2.999H2v2h13zm7 3H9v-3l-5 4l5 4v-3h13z"/></svg>
    </symbol>

    <symbol id="line-chart" fill="none" viewBox="0 0 24 24" stroke="currentColor">
        <svg xmlns="http://www.w3.org/2000/svg" width="24" height="24" viewBox="0 0 24 24"><rect x="0" y="0" width="24" height="24" fill="none" stroke="none" /><path fill="currentColor" d="M7 16a1.5 1.5 0 0 0 1.5-1.5a.77.77 0 0 0 0-.15l2.79-2.79h.46l1.61 1.61v.08a1.5 1.5 0 1 0 3 0v-.08L20 9.5A1.5 1.5 0 1 0 18.5 8a.77.77 0 0 0 0 .15l-3.61 3.61h-.16L13 10a1.49 1.49 0 0 0-3 0l-3 3a1.5 1.5 0 0 0 0 3Zm13.5 4h-17V3a1 1 0 0 0-2 0v18a1 1 0 0 0 1 1h18a1 1 0 0 0 0-2Z"/></svg>
    </symbol>

    <symbol id="dash" fill="none" viewBox="0 0 24 24" stroke="currentColor">
        <svg xmlns="http://www.w3.org/2000/svg" width="24" height="24" viewBox="0 0 24 24"><rect x="0" y="0" width="24" height="24" fill="none" stroke="none" /><path fill="currentColor" d="M4.5 12.75a.75.75 0 0 1 .75-.75h13.5a.75.75 0 0 1 0 1.5H5.25a.75.75 0 0 1-.75-.75"/></svg>
    </symbol>

    <symbol id="crown" fill="none" viewBox="0 0 24 24" stroke="currentColor">
        <svg xmlns="http://www.w3.org/2000/svg" width="24" height="24" viewBox="0 0 24 24"><rect x="0" y="0" width="24" height="24" fill="none" stroke="none" /><path fill="currentColor" d="M5 16L3 5l5.5 5L12 4l3.5 6L21 5l-2 11zm14 3c0 .6-.4 1-1 1H6c-.6 0-1-.4-1-1v-1h14z"/></svg>
    </symbol>

    <symbol id="cog-wheel" fill="none" viewBox="0 0 24 24" stroke="currentColor">
        <svg xmlns="http://www.w3.org/2000/svg" width="24" height="24" viewBox="0 0 24 24"><rect x="0" y="0" width="24" height="24" fill="none" stroke="none" /><path fill="currentColor" d="m10.135 21l-.362-2.892q-.479-.145-1.035-.454q-.557-.31-.948-.664l-2.667 1.135l-1.865-3.25l2.305-1.738q-.044-.272-.073-.56q-.028-.287-.028-.558q0-.252.028-.53t.073-.626L3.258 9.125l1.865-3.212L7.771 7.03q.448-.373.97-.673q.52-.3 1.013-.464L10.134 3h3.731l.362 2.912q.575.201 1.016.463q.442.262.909.654l2.725-1.116l1.865 3.212l-2.382 1.796q.082.31.092.568q.01.26.01.511q0 .233-.02.491q-.019.259-.088.626l2.344 1.758l-1.865 3.25l-2.681-1.154q-.467.392-.94.673q-.474.281-.985.444L13.865 21zM11 20h1.956l.369-2.708q.756-.2 1.36-.549q.605-.349 1.232-.956l2.495 1.063l.994-1.7l-2.189-1.644q.125-.427.166-.786q.04-.358.04-.72q0-.38-.04-.72q-.04-.34-.166-.747l2.227-1.683l-.994-1.7l-2.552 1.07q-.454-.499-1.193-.934t-1.4-.578L13 4h-1.994l-.312 2.688q-.756.162-1.39.52q-.633.36-1.26.986L5.55 7.15l-.994 1.7l2.169 1.62q-.125.336-.175.73q-.05.394-.05.82q0 .38.05.755t.156.73l-2.15 1.645l.994 1.7l2.475-1.05q.588.594 1.222.953t1.428.559zm.973-5.5q1.046 0 1.773-.727q.727-.727.727-1.773q0-1.046-.727-1.773q-.727-.727-1.773-.727q-1.052 0-1.776.727T9.473 12q0 1.046.724 1.773q.724.727 1.776.727M12 12"/></svg>
    </symbol>

    <symbol id="send-backward" fill="none" viewBox="0 0 24 24" stroke="currentColor">
        <svg xmlns="http://www.w3.org/2000/svg" width="1em" height="1em" viewBox="0 0 32 32">
            <path fill="currentColor" d="M4 7H2V4a2 2 0 0 1 2-2h3v2H4zm3 15H4a2 2 0 0 1-2-2v-3h2v3h3zM2 10h2v4H2zm20-3h-2V4h-3V2h3a2 2 0 0 1 2 2zM10 2h4v2h-4zm18 28H12a2 2 0 0 1-2-2V12a2 2 0 0 1 2-2h16a2 2 0 0 1 2 2v16a2 2 0 0 1-2 2M12 12v16h16V12z" />
        </svg>
    </symbol>

    <symbol id="arrow-sort-down" viewBox="0 0 24 24">
        <path fill="currentColor" d="M18 3a1 1 0 1 0-2 0v15.586l-1.793-1.793a1 1 0 0 0-1.414 1.414l3.5 3.5a1 1 0 0 0 1.414 0l3.5-3.5a1 1 0 0 0-1.414-1.414L18 18.586zM3 4a1 1 0 0 0 0 2h10a1 1 0 1 0 0-2zm3 5a1 1 0 0 1 1-1h6a1 1 0 1 1 0 2H7a1 1 0 0 1-1-1m5 3a1 1 0 1 0 0 2h2a1 1 0 1 0 0-2z" />
    </symbol>

    <symbol id="arrow-sort-up" viewBox="0 0 24 24">
        <path fill="currentColor" d="M18 21a1 1 0 1 1-2 0V5.414l-1.793 1.793a1 1 0 1 1-1.414-1.414l3.5-3.5a1 1 0 0 1 1.414 0l3.5 3.5a1 1 0 0 1-1.414 1.414L18 5.414zM3 20a1 1 0 1 1 0-2h10a1 1 0 1 1 0 2zm3-5a1 1 0 0 0 1 1h6a1 1 0 1 0 0-2H7a1 1 0 0 0-1 1m5-3a1 1 0 1 1 0-2h2a1 1 0 1 1 0 2z" />
    </symbol>

    <symbol id="link" viewBox="0 0 24 24">
        <path fill="currentColor" d="M14.78 3.653a3.936 3.936 0 1 1 5.567 5.567l-3.627 3.627a3.936 3.936 0 0 1-5.88-.353a.75.75 0 0 0-1.18.928a5.436 5.436 0 0 0 8.12.486l3.628-3.628a5.436 5.436 0 1 0-7.688-7.688l-3 3a.75.75 0 0 0 1.06 1.061z" />
        <path fill="currentColor" d="M7.28 11.153a3.936 3.936 0 0 1 5.88.353a.75.75 0 0 0 1.18-.928a5.436 5.436 0 0 0-8.12-.486L2.592 13.72a5.436 5.436 0 1 0 7.688 7.688l3-3a.75.75 0 1 0-1.06-1.06l-3 3a3.936 3.936 0 0 1-5.567-5.568z" />
    </symbol>

    <symbol id="unlink" viewBox="0 0 24 24">
        <path fill="currentColor" d="M20.347 3.653a3.936 3.936 0 0 0-5.567 0l-1.75 1.75a.75.75 0 0 1-1.06-1.06l1.75-1.75a5.436 5.436 0 0 1 7.688 7.687l-1.564 1.564a.75.75 0 0 1-1.06-1.06l1.563-1.564a3.936 3.936 0 0 0 0-5.567M9.786 12.369a.75.75 0 0 1 1.053.125q.143.183.314.353c1.348 1.348 3.386 1.587 4.89.658l-3.922-2.858l-.057-.037c-1.419-1.013-3.454-.787-4.784.543L3.653 14.78a3.936 3.936 0 0 0 5.567 5.567l3-3a.75.75 0 1 1 1.06 1.06l-3 3a5.436 5.436 0 1 1-7.688-7.687l3.628-3.628a5.5 5.5 0 0 1 3.014-1.547l-7.05-5.136a.75.75 0 0 1 .883-1.213l20.25 14.75a.75.75 0 0 1-.884 1.213l-5.109-3.722c-2.155 1.709-5.278 1.425-7.232-.53a6 6 0 0 1-.431-.485a.75.75 0 0 1 .125-1.053" />
    </symbol>

    <symbol id="download" viewBox="0 0 24 24">
        <path fill="currentColor" d="M12 4.5a4.5 4.5 0 0 0-4.495 4.285a.75.75 0 0 1-.75.715H6.5a3 3 0 1 0 0 6h3.576a6.6 6.6 0 0 0-.057 1.5H6.5a4.5 4.5 0 0 1-.42-8.98a6.001 6.001 0 0 1 11.84 0a4.5 4.5 0 0 1 4.053 4.973a6.5 6.5 0 0 0-1.8-1.857A3 3 0 0 0 17.5 9.5h-.256a.75.75 0 0 1-.749-.715A4.5 4.5 0 0 0 12 4.5m10 12a5.5 5.5 0 1 1-11 0a5.5 5.5 0 0 1 11 0m-5-3a.5.5 0 0 0-1 0v4.793l-1.646-1.647a.5.5 0 0 0-.708.708l2.5 2.5a.5.5 0 0 0 .708 0l2.5-2.5a.5.5 0 0 0-.708-.708L17 18.293z"/>
    </symbol>

    <symbol id="bug" viewBox="0 0 24 24">
        <path fill="currentColor" d="M7.72.22a.75.75 0 0 1 1.06 0l1.204 1.203A5 5 0 0 1 12 1c.717 0 1.4.151 2.016.423L15.22.22a.75.75 0 0 1 1.042.018a.75.75 0 0 1 .018 1.042l-.971.972A5 5 0 0 1 17 6v1.104a2.76 2.76 0 0 1 1.917 1.974l1.998-.999a.75.75 0 0 1 .67 1.342L19 10.714V13.5l3.25.003a.75.75 0 0 1 0 1.5L19 15.001V16c0 .568-.068 1.134-.204 1.686l.04.018l2.75 1.375a.75.75 0 1 1-.671 1.342l-2.638-1.319A7 7 0 0 1 12 23a7 7 0 0 1-6.197-3.742l-2.758 1.181a.752.752 0 0 1-1.064-.776a.75.75 0 0 1 .474-.602l2.795-1.199A7 7 0 0 1 5 16v-.996H1.75a.75.75 0 0 1 0-1.5H5v-2.79L2.415 9.42a.75.75 0 0 1 .67-1.342l1.998.999A2.76 2.76 0 0 1 7 7.104V6a5 5 0 0 1 1.69-3.748l-.97-.972a.75.75 0 0 1 0-1.06M6.5 9.75V16a5.5 5.5 0 1 0 11 0V9.75c0-.69-.56-1.25-1.25-1.25h-8.5c-.69 0-1.25.56-1.25 1.25M8.5 7h7V6a3.5 3.5 0 1 0-7 0Z"/>
    </symbol>

    <symbol id="more" viewBox="0 0 24 24">
        <path fill="currentColor" d="M12 8a2 2 0 1 1 0-4a2 2 0 0 1 0 4m0 6a2 2 0 1 1 0-4a2 2 0 0 1 0 4m-2 4a2 2 0 1 0 4 0a2 2 0 0 0-4 0"/>
    </symbol>

    <symbol id="drag" viewBox="0 0 24 24">
        <path fill="currentColor" d="M11.5 12.5H4.625l1.985 1.979q.146.146.155.35t-.156.369t-.359.165t-.36-.165l-2.632-2.633q-.131-.13-.184-.267T3.021 12t.053-.298t.184-.268L5.89 8.802q.146-.146.347-.156t.366.156t.165.357t-.165.356L4.619 11.5H11.5V4.62L9.51 6.61q-.147.146-.345.153q-.198.006-.363-.16q-.165-.164-.165-.356t.165-.356l2.633-2.633q.13-.131.267-.184T12 3.021t.298.053t.268.184l2.638 2.638q.146.146.155.345t-.155.363t-.357.165t-.357-.165L12.5 4.619V11.5h6.875l-1.984-1.979q-.147-.146-.156-.35t.156-.369t.359-.165t.36.165l2.632 2.633q.131.13.184.267t.053.298t-.053.298t-.184.268l-2.638 2.638q-.146.146-.344.153t-.364-.159t-.165-.357t.165-.356l1.985-1.985H12.5v6.875l1.979-1.984q.146-.147.35-.156t.369.156t.165.359t-.165.36l-2.633 2.632q-.13.131-.267.184t-.298.053t-.298-.053t-.268-.184l-2.638-2.638q-.146-.146-.153-.347t.159-.367t.357-.165t.356.165l1.985 1.99z"/>
    </symbol>
</svg>
