<svg xmlns="http://www.w3.org/2000/svg">
    <symbol id="clock" fill="none" viewBox="0 0 24 24" stroke="currentColor">
        <path stroke-linecap="round" stroke-linejoin="round" stroke-width="2" d="M12 8v4l3 3m6-3a9 9 0 11-18 0 9 9 0 0118 0z"/>
    </symbol>
    <symbol id="check" fill="none" viewBox="0 0 24 24" stroke="currentColor">
        <path stroke-linecap="round" stroke-linejoin="round" stroke-width="2" d="M5 13l4 4L19 7"/>
    </symbol>
    <symbol id="euro" fill="none" viewBox="0 0 24 24" stroke="currentColor">
        <path stroke-linecap="round" stroke-linejoin="round" stroke-width="2" d="M14.121 15.536c-1.171 1.952-3.07 1.952-4.242 0-1.172-1.953-1.172-5.119 0-7.072 1.171-1.952 3.07-1.952 4.242 0M8 10.5h4m-4 3h4m9-1.5a9 9 0 11-18 0 9 9 0 0118 0z"/>
    </symbol>
    <symbol id="calendar" fill="none" viewBox="0 0 24 24" stroke="currentColor">
        <path stroke-linecap="round" stroke-linejoin="round" stroke-width="2" d="M8 7V3m8 4V3m-9 8h10M5 21h14a2 2 0 002-2V7a2 2 0 00-2-2H5a2 2 0 00-2 2v12a2 2 0 002 2z"/>
    </symbol>
    <symbol id="users" fill="none" viewBox="0 0 24 24" stroke="currentColor">
        <path stroke-linecap="round" stroke-linejoin="round" stroke-width="2" d="M12 4.354a4 4 0 110 5.292M15 21H3v-1a6 6 0 0112 0v1zm0 0h6v-1a6 6 0 00-9-5.197M13 7a4 4 0 11-8 0 4 4 0 018 0z"/>
    </symbol>
    <symbol id="home" fill="none" viewBox="0 0 24 24" stroke="currentColor">
        <path stroke-linecap="round" stroke-linejoin="round" stroke-width="2" d="M3 12l2-2m0 0l7-7 7 7M5 10v10a1 1 0 001 1h3m10-11l2 2m-2-2v10a1 1 0 01-1 1h-3m-6 0a1 1 0 001-1v-4a1 1 0 011-1h2a1 1 0 011 1v4a1 1 0 001 1m-6 0h6"/>
    </symbol>
    <symbol id="search" fill="none" viewBox="0 0 24 24" stroke="currentColor">
        <path stroke-linecap="round" stroke-linejoin="round" stroke-width="2" d="M21 21l-6-6m2-5a7 7 0 11-14 0 7 7 0 0114 0z"/>
    </symbol>
    <symbol id="trash" fill="none" viewBox="0 0 24 24" stroke="currentColor">
        <path stroke-linecap="round" stroke-linejoin="round" stroke-width="2" d="M19 7l-.867 12.142A2 2 0 0116.138 21H7.862a2 2 0 01-1.995-1.858L5 7m5 4v6m4-6v6m1-10V4a1 1 0 00-1-1h-4a1 1 0 00-1 1v3M4 7h16"/>
    </symbol>
    <symbol id="close" fill="none" viewBox="0 0 24 24" stroke="currentColor">
        <path stroke-linecap="round" stroke-linejoin="round" stroke-width="2" d="M6 18L18 6M6 6l12 12"/>
    </symbol>
    <symbol id="logout" fill="none" viewBox="0 0 24 24" stroke="currentColor">
        <path stroke-linecap="round" stroke-linejoin="round" stroke-width="2" d="M17 16l4-4m0 0l-4-4m4 4H7m6 4v1a3 3 0 01-3 3H6a3 3 0 01-3-3V7a3 3 0 013-3h4a3 3 0 013 3v1"/>
    </symbol>
    <symbol id="moon" fill="none" viewBox="0 0 24 24" stroke="currentColor">
        <path stroke-linecap="round" stroke-linejoin="round" stroke-width="2" d="M20.354 15.354A9 9 0 018.646 3.646 9.003 9.003 0 0012 21a9.003 9.003 0 008.354-5.646z"/>
    </symbol>
    <symbol id="sun" fill="none" viewBox="0 0 24 24" stroke="currentColor">
        <path stroke-linecap="round" stroke-linejoin="round" stroke-width="2" d="M12 3v1m0 16v1m9-9h-1M4 12H3m15.364 6.364l-.707-.707M6.343 6.343l-.707-.707m12.728 0l-.707.707M6.343 17.657l-.707.707M16 12a4 4 0 11-8 0 4 4 0 018 0z"/>
    </symbol>
    <symbol id="status-offline" fill="none" viewBox="0 0 24 24" stroke="currentColor">
        <path stroke-linecap="round" stroke-linejoin="round" stroke-width="2" d="M18.364 5.636a9 9 0 010 12.728m0 0l-2.829-2.829m2.829 2.829L21 21M15.536 8.464a5 5 0 010 7.072m0 0l-2.829-2.829m-4.243 2.829a4.978 4.978 0 01-1.414-2.83m-1.414 5.658a9 9 0 01-2.167-9.238m7.824 2.167a1 1 0 111.414 1.414m-1.414-1.414L3 3m8.293 8.293l1.414 1.414"/>
    </symbol>
    <symbol id="status-online" fill="none" viewBox="0 0 24 24" stroke="currentColor">
        <path stroke-linecap="round" stroke-linejoin="round" stroke-width="2" d="M5.636 18.364a9 9 0 010-12.728m12.728 0a9 9 0 010 12.728m-9.9-2.829a5 5 0 010-7.07m7.072 0a5 5 0 010 7.07M13 12a1 1 0 11-2 0 1 1 0 012 0z"/>
    </symbol>
    <symbol id="menu" fill="none" viewBox="0 0 24 24" stroke="currentColor">
        <path stroke-linecap="round" stroke-linejoin="round" stroke-width="2" d="M4 6h16M4 12h16M4 18h16"/>
    </symbol>
    <symbol id="user-circle" fill="none" viewBox="0 0 24 24" stroke="currentColor">
        <path stroke-linecap="round" stroke-linejoin="round" stroke-width="2" d="M5.121 17.804A13.937 13.937 0 0112 16c2.5 0 4.847.655 6.879 1.804M15 10a3 3 0 11-6 0 3 3 0 016 0zm6 2a9 9 0 11-18 0 9 9 0 0118 0z" />
    </symbol>
    <symbol id="home" fill="none" viewBox="0 0 24 24" stroke="currentColor">
        <path stroke-linecap="round" stroke-linejoin="round" stroke-width="2" d="M3 12l2-2m0 0l7-7 7 7M5 10v10a1 1 0 001 1h3m10-11l2 2m-2-2v10a1 1 0 01-1 1h-3m-6 0a1 1 0 001-1v-4a1 1 0 011-1h2a1 1 0 011 1v4a1 1 0 001 1m-6 0h6" />
    </symbol>
    <symbol id="arrow-expand" fill="none" viewBox="0 0 24 24" stroke="currentColor">
        <path stroke-linecap="round" stroke-linejoin="round" stroke-width="2" d="M4 8V4m0 0h4M4 4l5 5m11-1V4m0 0h-4m4 0l-5 5M4 16v4m0 0h4m-4 0l5-5m11 5l-5-5m5 5v-4m0 4h-4" />
    </symbol>
    <symbol id="eye-open" fill="none" viewBox="0 0 24 24" stroke="currentColor">
        <path stroke-linecap="round" stroke-linejoin="round" stroke-width="2" d="M15 12a3 3 0 11-6 0 3 3 0 016 0z" />
        <path stroke-linecap="round" stroke-linejoin="round" stroke-width="2" d="M2.458 12C3.732 7.943 7.523 5 12 5c4.478 0 8.268 2.943 9.542 7-1.274 4.057-5.064 7-9.542 7-4.477 0-8.268-2.943-9.542-7z" />
    </symbol>
    <symbol id="eye-off" fill="none" viewBox="0 0 24 24" stroke="currentColor">
        <path stroke-linecap="round" stroke-linejoin="round" stroke-width="2" d="M13.875 18.825A10.05 10.05 0 0112 19c-4.478 0-8.268-2.943-9.543-7a9.97 9.97 0 011.563-3.029m5.858.908a3 3 0 114.243 4.243M9.878 9.878l4.242 4.242M9.88 9.88l-3.29-3.29m7.532 7.532l3.29 3.29M3 3l3.59 3.59m0 0A9.953 9.953 0 0112 5c4.478 0 8.268 2.943 9.543 7a10.025 10.025 0 01-4.132 5.411m0 0L21 21" />
    </symbol>
    <symbol id="plus" fill="none" viewBox="0 0 24 24" stroke="currentColor">
        <path stroke-linecap="round" stroke-linejoin="round" stroke-width="2" d="M12 6v6m0 0v6m0-6h6m-6 0H6" />
    </symbol>
    <symbol id="selector" fill="none" viewBox="0 0 24 24" stroke="currentColor">
        <path stroke-linecap="round" stroke-linejoin="round" stroke-width="2" d="M8 9l4-4 4 4m0 6l-4 4-4-4" />
    </symbol>
    <symbol id="save" fill="none" viewBox="0 0 24 24" stroke="currentColor">
        <path stroke-linecap="round" stroke-linejoin="round" stroke-width="2" d="M8 7H5a2 2 0 00-2 2v9a2 2 0 002 2h14a2 2 0 002-2V9a2 2 0 00-2-2h-3m-1 4l-3 3m0 0l-3-3m3 3V4" />
    </symbol>
    <symbol id="chevron-down" fill="none" viewBox="0 0 24 24" stroke="currentColor">
        <path stroke-linecap="round" stroke-linejoin="round" stroke-width="2" d="M19 9l-7 7-7-7" />
    </symbol>
    <symbol id="chevron-left" fill="none" viewBox="0 0 24 24" stroke="currentColor">
        <path stroke-linecap="round" stroke-linejoin="round" stroke-width="2" d="M15 19l-7-7 7-7" />
    </symbol>
    <symbol id="chevron-right" fill="none" viewBox="0 0 24 24" stroke="currentColor">
        <path stroke-linecap="round" stroke-linejoin="round" stroke-width="2" d="M9 5l7 7-7 7" />
    </symbol>
    <symbol id="chevron-double-right" fill="none" viewBox="0 0 24 24" stroke="currentColor">
        <path stroke-linecap="round" stroke-linejoin="round" stroke-width="2" d="M13 5l7 7-7 7M5 5l7 7-7 7" />
    </symbol>
    <symbol id="error" fill="none" viewBox="0 0 24 24" stroke="currentColor">
        <path stroke-linecap="round" stroke-linejoin="round" stroke-width="2" d="M12 8v4m0 4h.01M21 12a9 9 0 11-18 0 9 9 0 0118 0z" />
    </symbol>
    <symbol id="at-symbol" fill="none" viewBox="0 0 24 24" stroke="currentColor">
        <path stroke-linecap="round" stroke-linejoin="round" stroke-width="2" d="M16 12a4 4 0 10-8 0 4 4 0 008 0zm0 0v1.5a2.5 2.5 0 005 0V12a9 9 0 10-9 9m4.5-1.206a8.959 8.959 0 01-4.5 1.207" />
    </symbol>
    <symbol id="camera" fill="none" viewBox="0 0 24 24" stroke="currentColor">
        <path stroke-linecap="round" stroke-linejoin="round" stroke-width="2" d="M3 9a2 2 0 012-2h.93a2 2 0 001.664-.89l.812-1.22A2 2 0 0110.07 4h3.86a2 2 0 011.664.89l.812 1.22A2 2 0 0018.07 7H19a2 2 0 012 2v9a2 2 0 01-2 2H5a2 2 0 01-2-2V9z" />
        <path stroke-linecap="round" stroke-linejoin="round" stroke-width="2" d="M15 13a3 3 0 11-6 0 3 3 0 016 0z" />
    </symbol>
    <symbol id="key" fill="none" viewBox="0 0 24 24" stroke="currentColor">
        <path stroke-linecap="round" stroke-linejoin="round" stroke-width="2" d="M15 7a2 2 0 012 2m4 0a6 6 0 01-7.743 5.743L11 17H9v2H7v2H4a1 1 0 01-1-1v-2.586a1 1 0 01.293-.707l5.964-5.964A6 6 0 1121 9z" />
    </symbol>
    <symbol id="pencil" fill="none" viewBox="0 0 24 24" stroke="currentColor">
        <path stroke-linecap="round" stroke-linejoin="round" stroke-width="2" d="M15.232 5.232l3.536 3.536m-2.036-5.036a2.5 2.5 0 113.536 3.536L6.5 21.036H3v-3.572L16.732 3.732z" />
    </symbol>
    <symbol id="fire" fill="none" viewBox="0 0 24 24" stroke="currentColor">
        <svg xmlns="http://www.w3.org/2000/svg" fill="none" viewBox="0 0 24 24" stroke="currentColor">
            <path stroke-linecap="round" stroke-linejoin="round" stroke-width="2" d="M17.657 18.657A8 8 0 016.343 7.343S7 9 9 10c0-2 .5-5 2.986-7C14 5 16.09 5.777 17.656 7.343A7.975 7.975 0 0120 13a7.975 7.975 0 01-2.343 5.657z" />
            <path stroke-linecap="round" stroke-linejoin="round" stroke-width="2" d="M9.879 16.121A3 3 0 1012.015 11L11 14H9c0 .768.293 1.536.879 2.121z" />
        </svg>
    </symbol>
    <symbol id="info" fill="none" viewBox="0 0 24 24" stroke="currentColor">
        <svg xmlns="http://www.w3.org/2000/svg" fill="none" viewBox="0 0 24 24" stroke="currentColor">
            <path stroke-linecap="round" stroke-linejoin="round" stroke-width="2" d="M13 16h-1v-4h-1m1-4h.01M21 12a9 9 0 11-18 0 9 9 0 0118 0z" />
        </svg>
    </symbol>
    <symbol id="copy" fill="none" viewBox="0 0 24 24" stroke="currentColor">
        <svg xmlns="http://www.w3.org/2000/svg" height="24" viewBox="0 0 24 24" width="24"><path d="M16 1H4c-1.1 0-2 .9-2 2v14h2V3h12V1zm3 4H8c-1.1 0-2 .9-2 2v14c0 1.1.9 2 2 2h11c1.1 0 2-.9 2-2V7c0-1.1-.9-2-2-2zm0 16H8V7h11v14z"/></svg>
    </symbol>
    <symbol id="grid" fill="none" viewBox="0 0 24 24" stroke="currentColor">
        <svg xmlns="http://www.w3.org/2000/svg" width="24" height="24" viewBox="0 0 512 512"><rect x="0" y="0" width="512" height="512" fill="none" stroke="none" /><path fill="currentColor" d="M47.547 63.547v384.906a16 16 0 0 0 16 16h384.906a16 16 0 0 0 16-16V63.547a16 16 0 0 0-16-16H63.547a16 16 0 0 0-16 16Zm288.6 16h96.3v96.3h-96.3Zm0 128.3h96.3v96.3h-96.3Zm0 128.3h96.3v96.3h-96.3Zm-128.3-256.6h96.3v96.3h-96.3Zm0 128.3h96.3v96.3h-96.3Zm0 128.3h96.3v96.3h-96.3Zm-128.3-256.6h96.3v96.3h-96.3Zm0 128.3h96.3v96.3h-96.3Zm0 128.3h96.3v96.3h-96.3Z"/></svg>
    </symbol>
    <symbol id="stack" fill="none" viewBox="0 0 24 24" stroke="currentColor">
        <svg xmlns="http://www.w3.org/2000/svg" width="24" height="24" viewBox="0 0 16 16"><rect x="0" y="0" width="16" height="16" fill="none" stroke="none" /><g fill="currentColor"><path d="m14.12 10.163l1.715.858c.22.11.22.424 0 .534L8.267 15.34a.598.598 0 0 1-.534 0L.165 11.555a.299.299 0 0 1 0-.534l1.716-.858l5.317 2.659c.505.252 1.1.252 1.604 0l5.317-2.66zM7.733.063a.598.598 0 0 1 .534 0l7.568 3.784a.3.3 0 0 1 0 .535L8.267 8.165a.598.598 0 0 1-.534 0L.165 4.382a.299.299 0 0 1 0-.535L7.733.063z"/><path d="m14.12 6.576l1.715.858c.22.11.22.424 0 .534l-7.568 3.784a.598.598 0 0 1-.534 0L.165 7.968a.299.299 0 0 1 0-.534l1.716-.858l5.317 2.659c.505.252 1.1.252 1.604 0l5.317-2.659z"/></g></svg>
    </symbol>

    <symbol id="color-picker" fill="none" viewBox="0 0 24 24" stroke="currentColor">
        <svg xmlns="http://www.w3.org/2000/svg" width="24" height="24" viewBox="0 0 24 24"><rect x="0" y="0" width="24" height="24" fill="none" stroke="none" /><g id="evaColorPickerFill0"><g id="evaColorPickerFill1"><path id="evaColorPickerFill2" fill="currentColor" d="M19.4 7.34L16.66 4.6A1.92 1.92 0 0 0 14 4.53l-2 2l-1.29-1.24a1 1 0 0 0-1.42 1.42L10.53 8L5 13.53a2 2 0 0 0-.57 1.21L4 18.91a1 1 0 0 0 .29.8A1 1 0 0 0 5 20h.09l4.17-.38a2 2 0 0 0 1.21-.57l5.58-5.58l1.24 1.24a1 1 0 0 0 1.42 0a1 1 0 0 0 0-1.42l-1.24-1.24l2-2a1.92 1.92 0 0 0-.07-2.71Zm-13 7.6L12 9.36l2.69 2.7l-2.79 2.79"/></g></g></svg>
    </symbol>

    <symbol id="undo" fill="none" viewBox="0 0 24 24" stroke="currentColor">
        <svg xmlns="http://www.w3.org/2000/svg" width="24" height="24" viewBox="0 0 24 24"><rect x="0" y="0" width="24" height="24" fill="none" stroke="none" /><path fill="currentColor" d="M12.5 8c-2.65 0-5.05.99-6.9 2.6L2 7v9h9l-3.62-3.62c1.39-1.16 3.16-1.88 5.12-1.88c3.54 0 6.55 2.31 7.6 5.5l2.37-.78C21.08 11.03 17.15 8 12.5 8z"/></svg>
    </symbol>

    <symbol id="redo" fill="none" viewBox="0 0 24 24" stroke="currentColor">
        <svg xmlns="http://www.w3.org/2000/svg" width="24" height="24" viewBox="0 0 24 24"><rect x="0" y="0" width="24" height="24" fill="none" stroke="none" /><path fill="currentColor" d="M12.5 8c-2.65 0-5.05.99-6.9 2.6L2 7v9h9l-3.62-3.62c1.39-1.16 3.16-1.88 5.12-1.88c3.54 0 6.55 2.31 7.6 5.5l2.37-.78C21.08 11.03 17.15 8 12.5 8z"/></svg>
        <svg xmlns="http://www.w3.org/2000/svg" width="24" height="24" viewBox="0 0 24 24"><rect x="0" y="0" width="24" height="24" fill="none" stroke="none" /><path fill="currentColor" d="M18.4 10.6C16.55 8.99 14.15 8 11.5 8c-4.65 0-8.58 3.03-9.96 7.22L3.9 16a8.002 8.002 0 0 1 7.6-5.5c1.95 0 3.73.72 5.12 1.88L13 16h9V7l-3.6 3.6z"/></svg>
    </symbol>

    <symbol id="export" fill="none" viewBox="0 0 24 24" stroke="currentColor">
        <svg xmlns="http://www.w3.org/2000/svg" width="24" height="24" viewBox="0 0 24 24"><rect x="0" y="0" width="24" height="24" fill="none" stroke="none" /><path fill="currentColor" d="M20.92 15.62a1.15 1.15 0 0 0-.21-.33l-3-3a1 1 0 0 0-1.42 1.42l1.3 1.29H12a1 1 0 0 0 0 2h5.59l-1.3 1.29a1 1 0 0 0 0 1.42a1 1 0 0 0 1.42 0l3-3a.93.93 0 0 0 .21-.33a1 1 0 0 0 0-.76ZM14 20H6a1 1 0 0 1-1-1V5a1 1 0 0 1 1-1h5v3a3 3 0 0 0 3 3h4a1 1 0 0 0 .92-.62a1 1 0 0 0-.21-1.09l-6-6a1.07 1.07 0 0 0-.28-.19h-.09l-.28-.1H6a3 3 0 0 0-3 3v14a3 3 0 0 0 3 3h8a1 1 0 0 0 0-2ZM13 5.41L15.59 8H14a1 1 0 0 1-1-1Z"/></svg>
    </symbol>

    <symbol id="import" fill="none" viewBox="0 0 24 24" stroke="currentColor">
        <svg xmlns="http://www.w3.org/2000/svg" width="24" height="24" viewBox="0 0 24 24"><rect x="0" y="0" width="24" height="24" fill="none" stroke="none" /><path fill="currentColor" d="M11 20H6a1 1 0 0 1-1-1V5a1 1 0 0 1 1-1h5v3a3 3 0 0 0 3 3h3v2a1 1 0 0 0 2 0V8.94a1.31 1.31 0 0 0-.06-.27v-.09a1.32 1.32 0 0 0-.19-.29l-6-6a1.32 1.32 0 0 0-.29-.19a.32.32 0 0 0-.09 0l-.31-.1H6a3 3 0 0 0-3 3v14a3 3 0 0 0 3 3h5a1 1 0 0 0 0-2Zm2-14.59L15.59 8H14a1 1 0 0 1-1-1ZM19 15h-5.59l1.3-1.29a1 1 0 0 0-1.42-1.42l-3 3a1.15 1.15 0 0 0-.21.33a1 1 0 0 0 0 .76a.93.93 0 0 0 .21.33l3 3a1 1 0 0 0 1.42 0a1 1 0 0 0 0-1.42L13.41 17H19a1 1 0 0 0 0-2Z"/></svg>
    </symbol>
</svg>
