<svg xmlns="http://www.w3.org/2000/svg" width="256" height="256"><path fill-opacity=".016" d="M0 128.004v128.004l128.25-.254 128.25-.254.254-127.75L257.008 0H0v128.004m.485.496c0 70.4.119 99.053.265 63.672.146-35.38.146-92.98 0-128C.604 29.153.485 58.1.485 128.5" fill="#1976D2" fill-rule="evenodd"/><path fill-opacity=".219" d="M119.4 1.075c-6.126 1.469-91.969 51.134-97.196 56.234-2.363 2.305-5.513 6.666-7 9.691L12.5 72.5v112l2.468 5c4.644 9.408 9.045 12.547 53.55 38.188 23.09 13.304 44.007 25.107 46.482 26.228 3.307 1.499 6.62 2.046 12.5 2.061 6.771.018 8.922-.419 14-2.846 12.54-5.991 88.173-50.445 91.799-53.954 2.089-2.022 5.014-6.152 6.5-9.177l2.701-5.5v-112l-2.594-5.5c-1.427-3.025-4.409-7.3-6.626-9.5-3.785-3.756-84.676-51.261-93.721-55.04C134.854.494 124.724-.202 119.4 1.075m1.6 7.318c-4.78 1.337-89.862 50.189-93.717 53.811-1.25 1.174-3.4 4.397-4.778 7.162L20 74.393v107.214l2.613 5.244c3.285 6.592 5.632 8.442 24.515 19.319 15.2 8.756 15.385 8.83 22.18 8.83h6.852l-5.83-5.85c-24.456-24.539-25.044-62.57-1.73-111.996 2.977-6.311 5.589-11.29 5.804-11.064.215.225-.049 3.11-.587 6.41-.538 3.3-.709 8.396-.38 11.324 1.554 13.832 8.684 20.935 23.288 23.201C119.612 130.576 134 114.406 134 85.134c0-19.691-6.952-40.185-17.261-50.884-4.522-4.693-1.912-4.158 10.832 2.219 28.757 14.392 45.062 35.437 48.555 62.672 2.103 16.402-1.412 32.938-12.617 59.359-7.454 17.577-9.75 25.022-9.321 30.217l.312 3.777 6.295-8.368c7.585-10.083 16.378-27.749 19.124-38.422 1.104-4.288 2.52-12.613 3.148-18.5.628-5.887 1.288-10.859 1.465-11.048.519-.553 5.384 7.538 9.474 15.756 7.591 15.252 11.008 31.907 9.132 44.516-2.018 13.57-5.6 21.341-14.897 32.322l-5.292 6.25h4.868c4.306 0 6.703-1.053 20.775-9.127 18.268-10.482 20.778-12.506 24.025-19.373l2.363-5 .01-53.554.01-53.553-2.578-5.173c-1.418-2.845-3.843-6.238-5.39-7.539-5.653-4.757-89.527-52.566-94.032-53.6-5.562-1.276-6.398-1.254-12 .312M74.8 222.094c.385.327 10.375 6.177 22.2 13l21.5 12.406h18l21.5-12.401c11.825-6.821 21.815-12.671 22.2-13 .385-.33-23.33-.599-52.7-.599-29.37 0-53.085.267-52.7.594" fill="#1976D2" fill-rule="evenodd"/><path fill-opacity=".102" d="M14.813 79.683c.721.289 1.584.253 1.916-.079.332-.332-.258-.568-1.312-.525-1.165.048-1.402.285-.604.604m129.937.061c4.537.185 11.963.185 16.5 0 4.537-.185.825-.337-8.25-.337s-12.787.152-8.25.337m94.063-.061c.721.289 1.584.253 1.916-.079.332-.332-.258-.568-1.312-.525-1.165.048-1.402.285-.604.604M12.229 131.679c.364 58.757.058 56.662 9.685 66.357 4.611 4.645 13.175 9.998 49.086 30.686 23.925 13.783 45.3 25.557 47.5 26.163 5.865 1.618 14.301 1.302 20-.751 7.924-2.853 89.441-50.578 94.184-55.141 2.302-2.213 5.452-6.605 7-9.759l2.816-5.734.293-51.321.293-51.32-2.793.32c-3.446.396-3.149-3.604-4.117 55.321-.951 57.855.729 53.543-27.051 69.429-14.903 8.521-16.211 9.071-21.583 9.071h-5.719l5.918-6.458c18.65-20.354 20.352-47.243 4.922-77.759-3.389-6.705-6.658-12.338-7.262-12.52-.705-.211-1.313 2.638-1.695 7.954-1.007 14.008-4.714 26.924-11.709 40.796-5.634 11.174-16.943 26.321-18.509 24.792-1.776-1.735 2.174-15.574 9.506-33.305 10.338-25.003 12.27-32.573 12.252-48-.007-6.6-.339-12.787-.737-13.75-.398-.963-.464-2.425-.147-3.25.316-.825.087-1.5-.51-1.5s-.85-.9-.562-2c.287-1.1.167-2-.267-2-.724 0-2.064-3.086-2.388-5.5-.084-.622-6.552-1-17.117-1h-16.982l-.349 5c-.191 2.75-.737 5.403-1.213 5.896-.476.493-.609 2.18-.295 3.75.373 1.862.157 2.854-.621 2.854-.738 0-.951.763-.558 2 .356 1.121.18 2-.401 2-.57 0-.777.675-.461 1.5.317.825.051 1.5-.59 1.5s-.907.419-.591.931c.317.512.111 1.218-.457 1.569-.568.351-.774 1.057-.457 1.569.316.512.072.931-.543.931s-.864.412-.553.915c.311.503.222 1.065-.198 1.25-.42.184-2.19 2.158-3.933 4.386-1.743 2.228-5.564 5.378-8.492 7-4.847 2.685-6.175 2.949-14.824 2.949-8.556 0-10.096-.298-15.5-3-4.676-2.338-6.803-4.202-9.642-8.45-2.003-2.997-3.435-5.989-3.182-6.649.253-.659-.031-1.503-.632-1.874-.697-.43-.862-2.422-.455-5.487.351-2.646.203-5.589-.329-6.54-.811-1.449-1.274-.983-2.864 2.882-1.043 2.536-2.26 4.612-2.705 4.614-.445.002-.531.454-.191 1.004s.115 1-.5 1-.84.45-.5 1c.34.55.115 1-.5 1s-.859.419-.543.931c.317.512.111 1.218-.457 1.569-.568.351-.774 1.057-.457 1.569.316.512.098.931-.484.931s-1.006.338-.941.75c.066.412.009 1.088-.125 1.5-.133.412-.34 1.088-.458 1.5-.119.412-.971 2.443-1.894 4.511-3.333 7.474-6.74 24.091-7.331 35.762-1.1 21.717 4.563 38.53 17.516 52.007l6.699 6.97H61.73l-15.868-9.141c-10.123-5.832-17.296-10.691-19.814-13.423-6.574-7.132-6.792-8.907-7.49-60.936-.34-25.3-.757-46.9-.927-48-.206-1.327-1.22-2.108-3.014-2.321l-2.703-.32.315 50.82m60.855 89.738c1.759 1.759 45.014 25.793 47.826 26.575 9.316 2.588 12.951 1.315 38.837-13.6 11.931-6.875 21.894-12.7 22.14-12.946.245-.245-24.229-.446-54.387-.446s-54.645.188-54.416.417" fill="#1976D2" fill-rule="evenodd"/><path fill-opacity=".108" d="M13.269 161.693c.973.254 2.323.237 3-.037.677-.274-.119-.481-1.769-.461-1.65.02-2.204.244-1.231.498m67.051.056c14.752.156 38.602.156 53 0 14.399-.156 2.33-.284-26.82-.283-29.15 0-40.931.127-26.18.283m102.469-.008c3.459.196 8.859.195 12-.003s.311-.358-6.289-.356c-6.6.002-9.17.164-5.711.359m56.48-.048c.973.254 2.323.237 3-.037.677-.274-.119-.481-1.769-.461-1.65.02-2.204.244-1.231.498m-226.91 8.982c.52 6.701 1.277 12.581 1.685 13.075.113.137.319.7.456 1.25s.363 1.225.5 1.5c.137.275.328.838.424 1.25.675 2.908 1.855 5.25 2.643 5.25.513 0 .933.637.933 1.415s1.982 3.141 4.405 5.25c5.456 4.75 87.225 52.135 94.095 54.528 6.354 2.213 13.623 2.218 20 .013 8.158-2.822 91.47-51.547 95.608-55.917 3.987-4.212 7.844-11.146 7.2-12.947-.227-.637.018-1.425.545-1.751.528-.326.737-1.442.466-2.479-.271-1.038-.004-2.189.594-2.558.614-.38 1.087-3.694 1.087-7.613 0-6.635-.105-6.941-2.369-6.941-1.961 0-2.476.646-2.989 3.75-.341 2.063-.625 5.636-.631 7.941-.006 2.305-.441 4.457-.967 4.782-.526.325-.703 1.252-.393 2.059.309.807.065 1.468-.544 1.468s-1.054.338-.989.75c.723 4.579-6.728 11.042-24.429 21.187-15.115 8.664-16.077 9.063-21.834 9.063h-6.023l5.466-6.04c5.034-5.562 12.722-17.96 11.138-17.96-.374 0-.121-.675.564-1.5.685-.825.91-1.5.5-1.5-.41 0-.244-.604.369-1.342.612-.738.847-1.608.522-1.933-.325-.326-.239-1.162.191-1.858 1.285-2.078 1.701-8.684 1-15.867-.243-2.487-.302-2.501-11.663-2.79-11.619-.295-16.394.212-15.507 1.648.272.439-.722 2.168-2.209 3.842-1.487 1.673-2.84 3.663-3.008 4.421-.168.759-.948 1.873-1.734 2.478-.787.604-1.147 1.381-.802 1.726.345.346-.112.912-1.016 1.258-.904.347-1.643 1.272-1.643 2.055 0 .784-.675 1.684-1.5 2-.825.317-1.5 1.151-1.5 1.854 0 .703-1.125 2.015-2.5 2.916-1.375.901-2.5 2.336-2.5 3.188 0 .943-.686 1.414-1.75 1.202-1.317-.262-1.698-1.209-1.54-3.823.116-1.911.258-4.713.317-6.225.059-1.512.553-2.75 1.099-2.75.546 0 .76-.376.476-.835-.683-1.106 1.508-8.165 2.534-8.165.441 0 .54-.681.221-1.513-.32-.832-.03-2.176.644-2.988.974-1.174.946-1.582-.138-1.997-.75-.287-24.538-.405-52.863-.262l-51.5.26v5.746c0 3.161.39 5.748.867 5.75.476.002.631.904.344 2.003-.288 1.099-.085 2.27.451 2.601.536.331.754 1.177.484 1.879-.269.703.015 1.782.632 2.399s.791 1.122.387 1.122c-.405 0-.174 1.012.512 2.25.686 1.238 1.152 2.588 1.035 3-.116.412.238.75.788.75s.888.403.75.894c-.488 1.746 8.445 14.17 12.814 17.821 2.44 2.04 4.437 3.951 4.438 4.247.001.296-3.742.313-8.318.038-8.274-.497-8.403-.547-23.174-9-8.17-4.675-16.843-10.412-19.274-12.75-2.431-2.338-4.121-4.25-3.756-4.25.364 0-.048-.711-.918-1.581-.869-.869-1.344-1.963-1.055-2.431.289-.467.061-1.137-.507-1.488-.568-.351-.762-1.077-.43-1.613.331-.536.156-1.517-.389-2.181-.545-.663-1.16-4.356-1.367-8.206-.366-6.82-.447-7.008-3.18-7.325l-2.804-.324.529 6.824M73.55 221.88c.523.484 11.07 6.672 23.439 13.75l22.488 12.87h16.178l22.423-12.866c12.332-7.076 22.85-13.263 23.372-13.75.551-.513-22.093-.884-53.95-.884-31.663 0-54.498.372-53.95.88" fill="#1976D2" fill-rule="evenodd"/></svg>