<svg xmlns="http://www.w3.org/2000/svg" width="859.8" height="1178.8" viewBox="0 0 806.1 1105.1">
  <defs>
    <filter id="a" color-interpolation-filters="sRGB">
      <feGaussianBlur stdDeviation="2.8"/>
    </filter>
    <filter id="j" color-interpolation-filters="sRGB">
      <feGaussianBlur stdDeviation="1.1"/>
    </filter>
    <filter id="k" width="1.3" height="1.2" x="-.1" y="-.1" color-interpolation-filters="sRGB">
      <feGaussianBlur stdDeviation="2"/>
    </filter>
    <filter id="l" width="1.7" height="1.7" x="-.3" y="-.3" color-interpolation-filters="sRGB">
      <feGaussianBlur stdDeviation="6.1"/>
    </filter>
    <filter id="m" width="2.2" height="1.4" x="-.6" y="-.2" color-interpolation-filters="sRGB">
      <feGaussianBlur stdDeviation="6.1"/>
    </filter>
    <filter id="n" width="3.1" height="1.3" x="-1.1" y="-.2" color-interpolation-filters="sRGB">
      <feGaussianBlur stdDeviation="6.1"/>
    </filter>
    <filter id="o" width="1.6" height="2.2" x="-.3" y="-.6" color-interpolation-filters="sRGB">
      <feGaussianBlur stdDeviation="8.5"/>
    </filter>
    <filter id="p" width="1.6" height="6.4" x="-.3" y="-2.7" color-interpolation-filters="sRGB">
      <feGaussianBlur stdDeviation="8.5"/>
    </filter>
    <filter id="q" width="1.4" height="1.6" x="-.2" y="-.3" color-interpolation-filters="sRGB">
      <feGaussianBlur stdDeviation="4.6"/>
    </filter>
    <filter id="r" width="1.3" height="1.5" x="-.2" y="-.2" color-interpolation-filters="sRGB">
      <feGaussianBlur stdDeviation="4.7"/>
    </filter>
    <filter id="s" width="1.8" height="1.1" x="-.4" y="0" color-interpolation-filters="sRGB">
      <feGaussianBlur stdDeviation="1.8"/>
    </filter>
    <filter id="u" width="1.7" height="2" x="-.3" y="-.5" color-interpolation-filters="sRGB">
      <feGaussianBlur stdDeviation="3.7"/>
    </filter>
    <filter id="v" width="1.5" height="1.7" x="-.3" y="-.3" color-interpolation-filters="sRGB">
      <feGaussianBlur stdDeviation="6.6"/>
    </filter>
    <filter id="w" width="3.1" height="1.6" x="-1.1" y="-.3" color-interpolation-filters="sRGB">
      <feGaussianBlur stdDeviation="6.3"/>
    </filter>
    <filter id="x" width="1.5" height="1.1" x="-.3" y="0" color-interpolation-filters="sRGB">
      <feGaussianBlur stdDeviation=".8"/>
    </filter>
    <filter id="y" width="1.4" height="1.1" x="-.2" y="0" color-interpolation-filters="sRGB">
      <feGaussianBlur stdDeviation=".8"/>
    </filter>
    <filter id="z" width="1.7" height="1.1" x="-.3" y="0" color-interpolation-filters="sRGB">
      <feGaussianBlur stdDeviation=".8"/>
    </filter>
    <filter id="A" width="1.2" height="1.4" x="-.1" y="-.2" color-interpolation-filters="sRGB">
      <feGaussianBlur stdDeviation="3.7"/>
    </filter>
    <filter id="B" width="1.2" height="1.4" x="-.1" y="-.2" color-interpolation-filters="sRGB">
      <feGaussianBlur stdDeviation="3.7"/>
    </filter>
    <filter id="C" width="1.2" height="1.4" x="-.1" y="-.2" color-interpolation-filters="sRGB">
      <feGaussianBlur stdDeviation="3.7"/>
    </filter>
    <filter id="D" width="1.3" height="3.8" x="-.1" y="-1.4" color-interpolation-filters="sRGB">
      <feGaussianBlur stdDeviation="14.7"/>
    </filter>
    <filter id="E" width="1.3" height="3.8" x="-.1" y="-1.4" color-interpolation-filters="sRGB">
      <feGaussianBlur stdDeviation="14.7"/>
    </filter>
    <filter id="F" width="1.3" height="3.8" x="-.1" y="-1.4" color-interpolation-filters="sRGB">
      <feGaussianBlur stdDeviation="14.7"/>
    </filter>
    <filter id="G" width="1.4" height="1.7" x="-.2" y="-.3" color-interpolation-filters="sRGB">
      <feGaussianBlur stdDeviation="6.4"/>
    </filter>
    <filter id="H" width="1.4" height="1.7" x="-.2" y="-.3" color-interpolation-filters="sRGB">
      <feGaussianBlur stdDeviation="6.4"/>
    </filter>
    <filter id="I" width="1.2" height="1.7" x="-.1" y="-.3" color-interpolation-filters="sRGB">
      <feGaussianBlur stdDeviation="5.7"/>
    </filter>
    <filter id="J" width="1.2" height="1.7" x="-.1" y="-.3" color-interpolation-filters="sRGB">
      <feGaussianBlur stdDeviation="5.7"/>
    </filter>
    <filter id="K" width="1.3" height="2" x="-.1" y="-.5" color-interpolation-filters="sRGB">
      <feGaussianBlur stdDeviation="8.5"/>
    </filter>
    <filter id="L" width="1.1" height="1.7" x="0" y="-.4" color-interpolation-filters="sRGB">
      <feGaussianBlur stdDeviation="4.6"/>
    </filter>
    <filter id="M" width="1.1" height="3.1" x="-.1" y="-1" color-interpolation-filters="sRGB">
      <feGaussianBlur stdDeviation="7.9"/>
    </filter>
    <filter id="N" width="1.1" height="3.1" x="-.1" y="-1" color-interpolation-filters="sRGB">
      <feGaussianBlur stdDeviation="7.9"/>
    </filter>
    <filter id="O" width="1.2" height="1.3" x="-.1" y="-.2" color-interpolation-filters="sRGB">
      <feGaussianBlur stdDeviation="3.7"/>
    </filter>
    <filter id="P" color-interpolation-filters="sRGB">
      <feGaussianBlur stdDeviation="1.3"/>
    </filter>
    <filter id="R" width="5.4" height="5.8" x="-2.2" y="-2.4" color-interpolation-filters="sRGB">
      <feGaussianBlur stdDeviation="3.7"/>
    </filter>
    <filter id="S" width="2.8" height="3" x="-.9" y="-1" color-interpolation-filters="sRGB">
      <feGaussianBlur stdDeviation="3.7"/>
    </filter>
    <filter id="T" width="3" height="2.8" x="-1" y="-.9" color-interpolation-filters="sRGB">
      <feGaussianBlur stdDeviation="3.7"/>
    </filter>
    <filter id="U" width="1.4" height="125.6" x="-.2" y="-62.3" color-interpolation-filters="sRGB">
      <feGaussianBlur stdDeviation="2"/>
    </filter>
    <filter id="V" width="1.2" height="1.1" x="-.1" y="-.1" color-interpolation-filters="sRGB">
      <feGaussianBlur stdDeviation=".4"/>
    </filter>
    <filter id="X" width="1.6" height="1.4" x="-.3" y="-.2" color-interpolation-filters="sRGB">
      <feGaussianBlur stdDeviation="1.1"/>
    </filter>
    <linearGradient id="Z" x1="316.2" x2="316.1" y1="168.3" y2="359.1" gradientTransform="translate(0 169)" gradientUnits="userSpaceOnUse">
      <stop offset="0" stop-color="#ffaa2a"/>
      <stop offset="1" stop-color="#ff002a"/>
    </linearGradient>
    <linearGradient id="c" x1="227.2" x2="286.6" y1="274.8" y2="279.9" gradientTransform="matrix(1.2693 -.49665 .4978 1.2722 -755 -59)" gradientUnits="userSpaceOnUse">
      <stop offset="0" stop-color="#e4ad53"/>
      <stop offset="1" stop-color="#e49453"/>
    </linearGradient>
    <linearGradient id="d" x1="263.1" x2="234.8" y1="319.7" y2="262.2" gradientTransform="matrix(1.2495 .54837 -.54552 1.2507 -473 -256)" gradientUnits="userSpaceOnUse">
      <stop offset="0" stop-color="#e4ad53"/>
      <stop offset="1" stop-color="#e49453"/>
    </linearGradient>
    <linearGradient id="e" x1="253.4" x2="215.3" y1="290.7" y2="260.6" gradientTransform="matrix(-1.4353 -.62996 .52889 -1.2126 -216 638)" gradientUnits="userSpaceOnUse">
      <stop offset="0" stop-color="#e4ad53"/>
      <stop offset="1" stop-color="#eac468"/>
    </linearGradient>
    <linearGradient id="f" x1="293.1" x2="209.3" y1="293" y2="272.9" gradientTransform="matrix(-.77745 1.0381 -1.0239 -.87037 45 212)" gradientUnits="userSpaceOnUse">
      <stop offset="0" stop-color="#e4ad53"/>
      <stop offset="1" stop-color="#e8c268"/>
    </linearGradient>
    <linearGradient id="g" x1="227.2" x2="286.6" y1="274.8" y2="279.9" gradientTransform="matrix(.97673 -1.2247 1.0332 .82737 -859 219)" gradientUnits="userSpaceOnUse">
      <stop offset="0" stop-color="#e4ad53"/>
      <stop offset="1" stop-color="#e49453"/>
    </linearGradient>
    <linearGradient id="h" x1="286.7" x2="205.6" y1="264.1" y2="260.4" gradientTransform="matrix(-.15234 -1.3574 1.3549 -.15047 -710 482)" gradientUnits="userSpaceOnUse">
      <stop offset="0" stop-color="#e4ad53"/>
      <stop offset="1" stop-color="#eac165"/>
    </linearGradient>
    <linearGradient id="i" x1="290.3" x2="196.9" y1="283" y2="250.6" gradientTransform="matrix(.17498 1.5592 -1.3135 .14587 -66 -186)" gradientUnits="userSpaceOnUse">
      <stop offset="0" stop-color="#e4ad53"/>
      <stop offset="1" stop-color="#eac067"/>
    </linearGradient>
    <linearGradient id="Q" x1="-218.8" x2="-224.8" y1="1002.9" y2="949.9" gradientTransform="matrix(-.49779 -1.2722 1.2692 -.49665 220 416)" gradientUnits="userSpaceOnUse">
      <stop offset="0" stop-color="#eaea42"/>
      <stop offset="1" stop-color="#e86c38"/>
    </linearGradient>
    <linearGradient id="W" x1="-1" x2="-7" y1="425.6" y2="426.1" gradientUnits="userSpaceOnUse">
      <stop offset="0" stop-color="#fff"/>
      <stop offset="1" stop-color="#fff" stop-opacity="0"/>
    </linearGradient>
    <linearGradient id="Y" x1="-2.7" x2=".9" y1="426.7" y2="425.8" gradientUnits="userSpaceOnUse">
      <stop offset="0" stop-color="#fff"/>
      <stop offset="1" stop-color="#fff" stop-opacity="0"/>
    </linearGradient>
    <radialGradient id="b" cx="-303" cy="917.5" r="49.3" gradientTransform="matrix(2.1826 .03875 -.01834 1.1362 155 -850)" gradientUnits="userSpaceOnUse">
      <stop offset="0" stop-color="#e59d49"/>
      <stop offset="1" stop-color="#e8b355"/>
    </radialGradient>
    <radialGradient id="t" cx="-206" cy="197.2" r="8.8" gradientTransform="matrix(.22692 -3.9597 5.3759 .3063 -1220 -682)" gradientUnits="userSpaceOnUse">
      <stop offset="0" stop-color="#e9c841"/>
      <stop offset="1" stop-color="#fff"/>
    </radialGradient>
  </defs>
  <path fill="#fdfdfd" d="M48 169a370 370 0 0 0-45 3c-5 2-4 10 2 18l12 19a5008 5008 0 0 0 98 152 17167 17167 0 0 0 147 229c6 10 14 43 16 71l2 93a13707 13707 0 0 0 1 236c0 3-4 8-7 10-5 4-8 9-10 20l-1 5-67 17c-87 22-84 21-89 28-4 5-4 6-2 11 5 12 28 17 93 22l55 2h2a6034 6034 0 0 0 149-1h8a797 797 0 0 0 10 0h3c30-1 52-4 72-7 21-4 27-7 30-16 2-7 2-8-2-12-3-3-13-7-28-11l-107-28c-17-4-21-6-21-12 0-4-3-9-11-19l-5-7-1-150a12502 12502 0 0 1 1-175c4-45 16-84 31-102a1712 1712 0 0 0 102-160 6292 6292 0 0 0 65-101 4788 4788 0 0 0 66-101c9-12 12-21 10-28l-1-4-89-1-420-1H48z"/>
  <path fill="#f3f3f3" d="M198 1103c-65-5-88-10-93-22-2-5-2-6 2-11 5-7 2-6 89-28l67-17 1-5c2-10 5-16 10-20 3-2 7-7 7-10l1-86a13707 13707 0 0 1-4-243c-2-28-10-61-16-71-3-3-6-10-8-14s-6-8-8-9c-4-2-13-15-29-42a2014 2014 0 0 0-38-61A6054 6054 0 0 0 63 280a5033 5033 0 0 1-58-90c-6-8-7-16-2-18l6-2h528l89 1 1 4c2 7-1 16-10 28a1957 1957 0 0 0-66 101 2980 2980 0 0 0-92 144c-55 89-69 109-75 117-15 18-27 57-31 102l-1 175 1 150 5 7c8 10 11 15 11 19 0 6 4 8 21 12l107 28c15 4 25 8 28 11 4 4 4 5 2 12-3 9-9 12-30 16-37 6-79 8-180 8l-119-2zm25-16h-7c-3 1-1 1 3 1s6 0 4-1zm82-64-3-2-4 2c-1 2 0 3 4 3s4-1 3-3zm8-52c-2-6-2-5-2 4-1 9 0 10 1 7 2-3 2-6 1-11zm0-81a4067 4067 0 0 1 1-141c0-37-1-65-4-79-1-7-1 31-1 109 0 106 0 138 2 136 1-1 2-12 2-25zm-3-250c-1-2-1-1-2 1l1 3 1-4zm57-157 6-18c7-15 28-76 28-80l27-87c7-21 8-26 3-26-2 0-3-1-4-4 0-4 0-4 5-3s6 1 8-8a1568 1568 0 0 1 16-63c1-3 1-4-2-4-2 0-5 2-5 4a2023 2023 0 0 1-34 99 182 182 0 0 1-9 32l-5 16-5 18-7 22-14 44a556 556 0 0 0-19 60c-4 9-2 12 5 5l6-7zm-100 9c0-3-5-6-8-6-4 0-4 2-1 5 2 3 9 3 9 1zm-2-37a743 743 0 0 1-16-107l-3-15-3-16a654 654 0 0 0-18-81c0-6-3-17-5-25s-4-15-3-17c0-3-2-3-15-4l-18-1c-1 1 1 14 4 21 1 4 2 8 2 17l2 15a407 407 0 0 1 15 60 9069 9069 0 0 1 49 156c0 4 5 9 8 8 1 0 2-5 1-11zm-41 7a213 213 0 0 0-25-48 464 464 0 0 0-26-48 797 797 0 0 0-38-63 618 618 0 0 0-57-87c-4-5 7 17 20 39a2518 2518 0 0 1 35 58 398 398 0 0 0 39 67 1237 1237 0 0 0 52 82zm188-12-1-2-2 2c-1 1 0 2 1 2l2-2zm51-74a2450 2450 0 0 0 85-142 317 317 0 0 1-31 46l-8 10-5 8c-5 11-8 16-12 20l-8 13c-10 18-12 22-18 29l-5 9-4 7-5 9-9 13c-9 12-16 24-16 28s7-6 36-50zM245 191h-6c-2 0-1 1 2 1 4 0 5 0 4-1z"/>
  <path fill="#ededed" d="M207 1103c-48-3-81-8-93-14-11-6-10-19 1-24l149-39 2-8c1-6 3-10 8-15l8-11c1-5-1-327-3-338l-3-19c-3-21-9-40-14-46l-8-14a333 333 0 0 1-52-76l-30-48A6500 6500 0 0 0 6 189c-6-10-6-15 1-18 5-2 348-2 531 0l88 2v7c1 6-1 10-17 33a5849 5849 0 0 0-94 144 43404 43404 0 0 1-133 208c-12 13-24 53-28 94l-3 176v155l4 6 8 11c2 3 5 8 5 12 2 8 6 10 25 13a1388 1388 0 0 1 124 34c6 1 8 3 9 7 5 18-11 23-95 30-25 3-189 3-224 0zm27-14c1-2-12-4-23-4-7 0-7 2 0 4s22 1 23 0zm39-39c0-2-5-1-6 2 0 2 1 2 3 1l3-3zm36-27c-1-3-3-4-8-4-6 0-7 0-7 4 0 3 1 3 8 3s8 0 7-3zm15-109a1437 1437 0 0 0-1-89v-43c-2-31-2-33-1-74 1-21 1-28-2-32-1-3-2-7-1-10 1-4 0-6-1-7-2-1-3-7-4-16-1-11-2-15-4-15-1 0-3 2-4 5a10595 10595 0 0 0 0 330c-2 21 0 24 11 24h8l-1-73zm55-380h-3c-2 0-1 1 1 1l2-1zm-135-6c0-1-1-3-3-3-4-2-5-2-2 1 2 4 5 4 5 2zm98-14c-8-5-70-10-72-6-3 4 0 5 15 6 29 2 60 2 57 0zm21-20c3-3 9-16 15-32l12-32 3-5v5c0 14 7-1 20-40a3457 3457 0 0 1 40-124l10-33v-6l2-7c3-3 3-4 0-8-2-3-2-6-2-9v-6c-7-4 2-5 52-5 30 0 55 1 55 2 0 2-9 12-11 12l-3 5c0 4-1 5-5 4-3 0-4 1-3 4 1 2 0 6-3 11l-8 12a562 562 0 0 1-27 39l-10 15-5 7-6 8a335 335 0 0 1-28 46c-1 4-4 8-5 9-3 2-6 8-14 22l-10 15-12 20c-8 15-31 52-35 57-6 6-3 9 3 4 7-6 44-55 68-92a3920 3920 0 0 0 118-189l3-9c1-4 17-4-247-4a969 969 0 0 1-145-3c-4 2-19 3-50 3-37 1-40 2-22 2l31 1c6 0 7 1 7 4l-1 8c0 4-5 7-15 9-6 1-8 6-6 9l3 8c1 5 1 6-2 5l-6 1c-3 2-3 2 1 2 2 0 5 2 6 4 2 3 3 4 5 2l4-2 7 17c1 4 3 6 6 6l6 1c3 2 7 12 5 17 0 3 0 4 2 4 3 0 4 7 1 9l-2 4c0 2 2 3 6 2 5 0 7-2 7-5 1-3 3-5 5-6 3 0 3 1 2 4-2 5-2 4 1 22 5 33 4 30 11 30 6 0 7 0 8 6l5 14c4 5 5 10 4 15 0 4 1 7 2 7l7 3c4 3 4 3 2 6-3 3-3 4 1 11 3 6 3 7 2 11-3 4-2 6 6 5 5 0 6 0 7 4l3 10 4 15c3 13 9 21 16 20 6-1 6-1 4-28l-3-21c-4-15-6-40-4-44 1-4 1-5-1-7-3-4-6-15-5-19l7-7c6-4 10-15 11-23 0-3 1-7 3-9l2-9v-6c1-2 2-1 5 2 3 6 4 12 0 14l-4 7c-1 4-1 5 2 4s5 0 8 4c2 3 5 5 5 4 1-1 1-2-1-3-3-2-4-33-1-34 2 0 9 17 9 24 0 2 1 4 3 5l4 8c1 7 3 9 7 5 1-2 4-3 5-3 3 0 3 1 2 4-4 6-3 8 3 7h7c2 4 8-1 11-8 4-6 4-6 5-1 2 7 6 8 5 0v-6c1-1 2-3 1-5l1-5c2-1 2 1 3 6v12c0 3 2 5 3 5 3 1 4-1 4-10 0-13 2-20 4-19 2 0 2 1 2 2l-1 4 2 10c1 11 3 14 9 14 5 0 5-2 2-9-2-4-1-5 1-6 4-3 2-21-3-27-3-5-3-7-1-9l2-7c0-1 1-3 3-3 4-2 9 11 6 17-2 3-2 5 0 7 1 1 2 4 1 6 0 2 0 5 2 6 2 2 3 2 4-1 4-6 3 0-2 16-6 18-8 28-11 43l-19 61-8 24c0 4-3 10-5 15-3 6-3 9-2 13 3 6 6 5 12-1zM209 344c0-2 0-3 1-1v3c-1 1-1 0-1-2zm113-9c-2-4-2-8-1-16 1-10 1-10 4-6 3 3 3 6 3 11-1 5 0 8 1 9 3 1 6-3 6-9s2-7 6-2c3 4 3 4 1 4s-4 1-4 3c0 3-8 12-11 12-1 0-3-2-5-6zm-12 0c0-2 1-3 3-3s3 1 3 3-1 4-3 4-3-1-3-4zm-54-15c-2-2-2-4-1-4 1-1 3 0 4 1 2 2 2 3 1 4s-3 0-4-1zm52-10c-2-2-3-6-3-7 0-2-2-4-3-5-4-3-6-14-3-15 1-1 4-1 7 1s4 4 3 8 0 9 1 13c3 9 2 11-2 5zm66 1 2-2c1 0 2 1 1 2l-2 2-1-2zm-20-3c1-4 4-4 5 0 0 2-1 3-3 3-1 0-3-1-2-3zm50-4 2-2 1 2-2 3-1-3zm-149 0c-2-2-1-12 1-13 1-1 2 0 1 2s0 3 2 3c3 0 5 6 2 8s-4 2-6 0zm-60-7c0-2 1-3 2-2l2 3-2 2-2-3zm76 1c0-3 5-8 8-7 4 1 4 5-1 5l-4 2-1 2-2-2zm-76-8v-3l2 2c0 4-1 4-2 1zm-58-64c-2-3-3-7 0-7 2 0 6 6 6 8s-3 1-6-1zm21-32 2-1 1 2-1 1-2-2zm112 299c1-5-6-11-12-10-7 0-8 7-1 11 6 4 12 4 13-1zm-29-4a696 696 0 0 0-59-114 10447 10447 0 0 0-27-46l-16-26-23-39c-6-8-7-13-6-16l-1-6-2 1c0 4-3 2-5-2l-10-14c-6-7-8-10-7-13s1-4-1-4c-2 1-5-2-9-6-3-4-8-8-10-8-4 0-4 1 1 10a944 944 0 0 1 32 56l19 33 42 71a2489 2489 0 0 1 66 107c4 8 12 19 14 19l2-3zm134-135-4-4c-4-1-4-1-4 2l1 5c2 2 7 0 7-3zm-69-6c-1-1-1 0-1 2l1 3v-5zm-167 1-3-4 1 4 3 3-1-3zm140-3c2-4 0-6-4-4-1 0-2 2-1 4 1 3 4 3 5 0zm14-1-2-2-2 2 2 2 2-2zm-166-17a889 889 0 0 0-35-58 440 440 0 0 0-37-57c-6 0-1 12 16 39l26 38c22 35 35 52 36 50 0-1-2-7-6-12zm-51-98-3-1-1 3 3 1 1-3zm21-10-1-2c-1-1-2 0-2 1l2 2 1-1zm496-20v-2l-2 2v2l2-2zm7-7c0-2-2-3-6-3s-7 1-7 2c0 4 11 5 13 1zm-513-2a259 259 0 0 0-39 1c16 1 35 1 39-1zm124-12c1-1-4-2-12-2-14 0-19 2-13 5 4 1 23-1 25-3z"/>
  <g transform="translate(1000)">
    <g stroke-width="0">
      <path fill="#e99e3e" d="M-378 18c-20 0-41 4-63 14-36 16-65 40-86 69-27 38-37 86-24 131h142l-58 89c42 24 90 31 143 10 7-3 10-9 17-13 76-41 118-125 88-201-16-42-46-67-86-84-22-8-46-15-73-15z"/>
      <path fill="#e99e3e" d="M-377 15c-21 0-43 4-65 15-36 16-66 40-87 69-27 39-37 87-25 133h145l-60 91c44 24 92 31 146 10 7-3 10-9 17-13 78-42 120-127 90-204-17-43-47-68-88-85-22-9-47-16-73-16z"/>
      <path fill="#fff" d="M1622 22c-20 0-40 4-62 14-34 16-63 39-83 67-26 38-36 85-23 129h137l-56 85c42 24 88 30 139 10 8-3 10-9 17-13 74-40 115-121 86-195-16-41-45-66-84-82-21-8-45-15-71-15z" filter="url(#a)" transform="translate(-2000)"/>
    </g>
    <g stroke="#eac867">
      <path fill="url(#b)" stroke-width="1.4" d="M-516 214c63 9 81-1 117-17 7-2 1-13 1-13-21-12-84-53-110-62-19-7-36 88-8 92z"/>
      <path fill="url(#c)" stroke-width="1.4" d="M-243 136c-11-7-83 20-115 33-6 3-6 12 0 14 52 11 70 19 113 43 15-20 32-72 2-90z"/>
      <path fill="url(#d)" stroke-width="1.4" d="M-254 230c1-13-85-65-110-41-40 40-7 0-5 6 15 47 6 71 31 106 30 1 82-49 84-71z"/>
      <path fill="url(#e)" stroke-width="1.4" d="M-502 121c13 6 63 34 100 57 6 4 10-8 10-8-6-24-11-75-41-111-27 1-88 51-69 62z"/>
      <path fill="url(#f)" stroke-width="3.1" d="M-393 191c-46 2-131 23-127 30l3 11h108l-41 63c12-1 45-66 63-92 4-5 0-12-6-12z"/>
      <path fill="url(#g)" stroke-width="1.4" d="M-308 57c-14 1-35 71-59 102-5 6 5 12 5 12 25 0 72-22 115-41 5-27-25-75-61-73z"/>
      <path fill="url(#h)" stroke-width="1.4" d="M-426 54c-9 9 20 67 39 103 3 6 9 9 13 4 32-36 37-68 55-107-15-20-81-24-107 0z"/>
      <path fill="url(#i)" stroke-width="1.4" d="M-348 305c9-11-17-62-22-101-1-7-13-4-13-4-17 17-47 59-64 103 15 13 75 28 99 2z"/>
      <path fill="#fbfbec" stroke-width="1.6" d="m1570 58 41 114c-9 12-75-29-113-50l107 62 3-1c9 23-31 65-47 97l56-82c6 0 14 12 22 28l-11-34c33-21 81 19 119 33-34-17-60-42-107-47l109-45-113 39 46-113c-18 35-22 69-55 107-16 19-38-72-57-108zm69 168c10 34 24 78 25 76 2-5-11-47-25-76zm-34-42-119 46 120-46h-1z" filter="url(#j)" transform="translate(-2000)"/>
    </g>
    <g fill="#e86c38" stroke-width="0">
      <path d="M183 289c-18 11-28 35-36 62l20-31z" filter="url(#k)" opacity=".5" transform="matrix(1.0142 -.39684 .2261 .57783 -631 112)"/>
      <path d="M183 289c-18 11-28 35-36 62l20-31z" filter="url(#l)" opacity=".5" transform="matrix(1.0826 -.12023 .06918 .61652 -534 -39)"/>
      <path d="M183 289c-18 11-28 35-36 62l20-31z" filter="url(#m)" opacity=".5" transform="matrix(.87671 -.64643 .3676 .49975 -624 62)"/>
      <path d="M183 289c-18 11-28 35-36 62l20-31z" filter="url(#n)" opacity=".5" transform="matrix(.16265 -1.0787 .61232 .09356 -639 279)"/>
      <path d="M183 289c-18 11-28 35-36 62l20-31z" filter="url(#o)" opacity=".5" transform="matrix(-.20913 -.53447 .55553 -.21738 -613 323)"/>
      <path d="m1566 213-20 8-19 8c12 2 25-7 39-16z" filter="url(#p)" opacity=".5" transform="translate(-2000)"/>
      <path d="m1581 217-13 15h5l8-15z" filter="url(#q)" opacity=".5" transform="translate(-2000)"/>
      <path d="M183 289c-18 11-28 35-36 62l20-31z" filter="url(#k)" opacity=".5" transform="matrix(-.65907 .63612 -.95404 -.02073 104 121)"/>
      <path d="M183 289c-18 11-28 35-36 62l20-31z" filter="url(#k)" opacity=".5" transform="matrix(-.22918 .52547 -.54688 -.24002 -117 220)"/>
      <path d="M183 289c-18 11-28 35-36 62l20-31z" filter="url(#k)" opacity=".5" transform="matrix(-1.7393 1.1164 -2.1201 .37557 674 -122)"/>
    </g>
    <ellipse cx="-240.7" cy="165.7" fill="#fff" filter="url(#r)" rx="5.8" ry="14.8" transform="matrix(.09502 .39818 -.23219 .79662 -332 235)"/>
    <path fill="url(#t)" stroke="#eac867" d="m-204 242-4-58 1-28v-2z" filter="url(#s)" opacity=".7" transform="matrix(1.2693 -.49665 .49926 1.2759 -247 -245)"/>
    <g stroke-width="0">
      <path fill="#e26f1a" d="m-213 245 6 7-9 11 10-9 17 4z" filter="url(#u)" opacity=".2" transform="matrix(1.2693 -.49665 .4978 1.2722 -246 -245)"/>
      <ellipse cx="-240.7" cy="165.7" fill="#fff" filter="url(#v)" rx="5.8" ry="14.8" transform="matrix(.39409 .00379 .49623 .28778 -294 201)"/>
      <path fill="#ae8a8a" d="M-233 193a10 17 0 0 1-3 13 10 17 0 0 1-8 4l1-17z" filter="url(#w)" opacity=".1" transform="matrix(1.3 .81339 .49469 .79041 -223 144)"/>
    </g>
    <g fill="none" stroke="#eac867" stroke-width=".5">
      <path d="m-63 1076 7 44" filter="url(#x)" transform="matrix(1.0972 -.809 .80937 1.1003 -1270 -1140)"/>
      <path d="M-42 1072c1 2-7 57-7 57" filter="url(#y)" transform="matrix(1.0972 -.809 .80937 1.1003 -1270 -1140)"/>
      <path d="M-67 1088c11 23 12 36 15 52" filter="url(#z)" transform="matrix(1.0972 -.809 .80937 1.1003 -1297 -1150)"/>
    </g>
    <g fill="#e86c38" stroke-width="0">
      <ellipse cx="-36" cy="397" filter="url(#A)" opacity=".5" rx="21" ry="24" transform="matrix(.13929 .0277 -.10741 .96223 -323 -280)"/>
      <ellipse cx="-36" cy="397" filter="url(#B)" opacity=".5" rx="21" ry="24" transform="matrix(.07468 .00532 .15822 .697 -451 -176)"/>
      <ellipse cx="-36" cy="397" filter="url(#C)" opacity=".5" rx="21" ry="24" transform="matrix(.10897 .01742 .30796 1.1989 -505 -358)"/>
      <ellipse cx="-36" cy="397" filter="url(#D)" opacity=".5" rx="21" ry="24" transform="matrix(.10957 .08775 -.51464 .6453 -86 -157)"/>
      <ellipse cx="-36" cy="397" filter="url(#E)" opacity=".5" rx="21" ry="24" transform="matrix(.10957 .08775 -.51464 .6453 -110 -152)"/>
      <ellipse cx="-36" cy="397" filter="url(#F)" opacity=".5" rx="21" ry="24" transform="matrix(.10957 .08775 -.51464 .6453 -100 -129)"/>
      <ellipse cx="-36" cy="397" filter="url(#G)" opacity=".5" rx="21" ry="24" transform="matrix(.11281 -.08318 -.48984 -.66594 -146 474)"/>
      <ellipse cx="-36" cy="397" filter="url(#H)" opacity=".5" rx="21" ry="24" transform="matrix(.01894 -.04088 -.29727 -.61887 -223 490)"/>
      <ellipse cx="-36" cy="397" filter="url(#C)" opacity=".5" rx="21" ry="24" transform="matrix(.11281 -.08318 -.48984 -.66594 -125 514)"/>
      <ellipse cx="-36" cy="397" filter="url(#A)" opacity=".5" rx="21" ry="24" transform="matrix(-.1386 -.02118 -.12319 .8171 -339 -65)"/>
      <ellipse cx="-36" cy="397" filter="url(#I)" opacity=".5" rx="21" ry="24" transform="matrix(-.09658 -.03896 .02582 .77246 -391 -20)"/>
      <ellipse cx="-36" cy="397" filter="url(#J)" opacity=".5" rx="21" ry="24" transform="matrix(-.1386 -.02118 -.12319 .8171 -362 -31)"/>
      <ellipse cx="-36" cy="397" filter="url(#K)" opacity=".5" rx="21" ry="24" transform="matrix(-.11613 -.04119 .00493 .88133 -381 -94)"/>
      <ellipse cx="-36" cy="397" filter="url(#L)" opacity=".2" rx="21" ry="24" transform="matrix(-.16872 -.05083 -.52636 .89377 -215 -70)"/>
      <path d="M1600 202a3 20 48 0 0-17 12 3 20 48 0 0-13 16 3 20 48 0 0 17-11 3 20 48 0 0 13-17z" filter="url(#M)" opacity=".5" transform="translate(-2000)"/>
      <path d="M1539 228a1 20 72 0 0-14 4h8a1 20 72 0 0 6-3 1 20 72 0 0 0-1z" filter="url(#N)" opacity=".5" transform="translate(-2000)"/>
    </g>
    <g stroke-width="0">
      <path fill="#e71b1b" d="m-220 931-46-60s37 42 33 35l-26-35s45 54 38 42c-7-11-20-45-20-45l22 42 1-41z" filter="url(#P)" opacity=".1" transform="matrix(1.2693 -.49665 .4978 1.2722 -596 -1138)"/>
      <path fill="url(#Q)" d="m1611 189-28 10-28 33h3c11-11 25-25 31-33s-4 12-15 33h3l8-14c3-3 0 4-5 14h5l26-43zm-28 10 1-1-53 19 52-18z" filter="url(#P)" opacity=".3" transform="translate(-2000)"/>
    </g>
    <g fill="#fff" stroke="#fff">
      <path stroke-width=".2" d="m-226 902 1-3 3 1z" filter="url(#R)" transform="matrix(1.2693 -.49665 .4978 1.2722 -596 -1138)"/>
      <path stroke-width=".4" d="m-168 905 2-9 7 2z" filter="url(#S)" transform="matrix(1.2693 -.49665 .4978 1.2722 -596 -1138)"/>
      <path stroke-width=".4" d="m-149 968 9 3-3 7z" filter="url(#T)" transform="matrix(1.2693 -.49665 .4978 1.2722 -581 -1079)"/>
      <path stroke-width=".1" d="m1578 228-10 4 10-4z" filter="url(#U)" transform="translate(-2000)"/>
    </g>
    <g stroke-width="0">
      <ellipse cx="-1.5" cy="427" fill="url(#W)" filter="url(#V)" opacity=".2" rx="3.5" ry="7" transform="matrix(4.8928 .74759 -.57622 3.8219 1 -1454)"/>
      <ellipse cx="-1.5" cy="427" fill="url(#Y)" filter="url(#X)" opacity=".6" rx="3.5" ry="7" transform="matrix(5.216 1.1766 -.38214 4.4966 -334 -1753)"/>
      <path fill="#fff" d="M-359 294h-1l-1 1h-2l-1-1h1l1-1 1-1h3v1z"/>
    </g>
    <g fill="url(#W)" stroke-width="0">
      <ellipse cx="-1.5" cy="427" filter="url(#V)" opacity=".2" rx="3.5" ry="7" transform="matrix(3.9883 -2.9311 2.2951 3.11 -1254 -1233)"/>
      <ellipse cx="-1.5" cy="427" filter="url(#V)" opacity=".2" rx="3.5" ry="7" transform="matrix(-.54429 -4.9196 3.8408 -.43262 -2010 245)"/>
      <ellipse cx="-1.5" cy="427" filter="url(#V)" opacity=".2" rx="3.5" ry="7" transform="matrix(-.54429 -4.9196 3.8408 -.43262 -2033 470)"/>
    </g>
    <ellipse cx="-1.5" cy="427" fill="url(#Y)" filter="url(#X)" opacity=".6" rx="3.5" ry="7" transform="matrix(1.589 5.1055 -4.0853 1.9174 1285 -718)"/>
  </g>
  <path fill="#f3f3f3" fill-rule="evenodd" d="m433 178 8 54h145l32-53-185-1z" opacity=".4"/>
  <path fill="#e3e3e3" d="M207 1103c-68-5-95-11-99-21-2-5 1-12 5-15 2-2 35-11 72-20 87-22 80-19 81-28 1-5 4-11 8-16 4-4 8-10 9-13l1-58-2-148c0-115-2-142-12-179-3-12-15-31-24-40-7-7-19-26-67-104A7053 7053 0 0 0 19 209L7 189c-6-9-6-11-4-15 4-5 12-6 93-5a96854 96854 0 0 0 528 4c6 2 3 12-16 41a8147 8147 0 0 0-133 206 38992 38992 0 0 0-93 146c-13 14-24 50-28 88-1 11-3 88-3 178v160l6 7c7 9 12 18 12 23 0 4 4 7 15 9a2331 2331 0 0 1 130 35c6 1 8 2 11 6 2 5 2 6 0 10-6 10-17 13-72 19-38 4-190 5-246 2zm30-13 8-3-13-1c-18-2-27-2-27 0 0 1 3 3 7 3l10 2c5 1 8 1 15-1zm36-38c4-3 4-3 1-4s-9 2-9 5c0 2 4 2 8-1zm93-14h-3c-2 1-2 1 1 1 2 0 3 0 2-1zm-28-13c4-3-6-5-25-6-21-1-22-1-22 3l2 5c1 1 44-1 45-2zm-7-39a12055 12055 0 0 0-4-358c-2-1-2-2 0-3 4-2 1-4-10-5-9-1-10 0-13 4-2 3-2 37-3 179l1 179c0 4 2 5 9 5 7 1 18 0 20-1zm-23-428h-4c-1 1-1 1 1 1l3-1zm73-24 3-4c0-1-12 3-13 5-2 3 7 2 10-1zm-135-5c0-2-3-4-7-6-6-3-7-2-1 5 4 4 8 4 8 1zm109-6c0-1 3-4 6-5 6-3 22-16 25-23l31-41a1118 1118 0 0 0 80-108c8-8 15-18 15-20l4-6c3-2 5-5 5-6l5-7 12-19c4-7 9-14 11-15l6-8c1-3 3-5 4-5s2-2 2-5c0-4 15-27 19-27l1-3 3-6 11-14 9-11 2-2-193-3c-193-1-216-1-216-4s3-4 30-6l26-1h-37c-28-1-36 0-34 2 4 3 2 6-4 7-3 1-39 2-79 2l-74 2a150 150 0 0 0 24 35l2 6 8 9a874 874 0 0 0 40 60l17 23 5 7 3 7c0 2 1 4 3 4l6 7c1 4 5 9 8 12 3 4 7 9 8 13 2 4 4 6 5 5 1-2 2 0 4 5l6 9c2 0 3 2 3 4s3 6 7 11l9 15 13 20 14 21c6 10 35 40 43 44 13 7 21 9 41 9a674 674 0 0 1 58 6l1 3 2-3zM163 178zm160 0h-8l4 1 4-1zm22 0h-9l4 1 5-1z"/>
  <path fill="#dbdbdb" d="m245 1104-40-2c-79-5-103-12-96-29 3-6 9-9 68-23 88-21 90-22 90-33l6-12c13-15 12-11 11-95l-2-151c0-95-2-119-12-155-3-12-14-30-24-41-9-9-13-14-55-85A5986 5986 0 0 0 61 272a1597 1597 0 0 1-55-85c-3-4-4-12-2-15 2-2 23-4 46-3a85614 85614 0 0 0 574 4c5 2 3 11-5 23l-18 27-19 30-32 48a8495 8495 0 0 0-167 261c-12 14-23 43-29 83-3 19-3 38-3 184v163l8 11 8 15c0 7 8 14 15 14l17 3a5681 5681 0 0 1 115 32c9 0 11 3 10 12 0 6-1 7-9 11-9 4-22 6-66 11a3502 3502 0 0 1-203 3zm8-15c8-1 4-2-20-3-27-2-32-1-30 2 5 4 26 4 50 1zm142-13h-4c-2 0-1 1 2 1s4-1 2-1zm-152-2h-6l3 1c3 0 4 0 3-1zm250-4 3-2a3331 3331 0 0 1-29-3c4 1 8 2 9 4 2 3 9 3 17 1zm-333-2h-8c-3 1-1 1 4 1l4-1zm206-6c0-1 0-2-2-2s-3 1-3 2l2 2 3-2zm-91-11c1-2 0-4-2-5-2-2-4-4-4-6l-2-2c-3 0-3 5 0 6 1 1 1 3-1 6s-2 4 0 5 8-1 9-4zm-28-10c4-1 3-1-1-1l-6 1c-2 3 2 3 7 0zm124-3c-9-3-10-3-10 0 1 2 13 5 16 4 1-1-2-2-6-4zm-45-11c12-1 14-2 14-5s-2-3-25-3-26 0-26 3l2 5c1 2 16 2 35 0zm4-39c3-2 3-19 3-184V621l-5-1c-3-1-5-3-5-4 0-2-16-3-21-1-3 1-3 18-3 183 0 129 1 183 2 186 2 4 3 5 14 5l15-1zm12-379-2-2-2 4c0 2 1 3 2 2l2-4zm-15-49c2-1 0-2-5-3-6-1-6-2-4-4h6l7-1c3-1 1-2-9-3-20-1-39-1-37 1l8 2c3 0 6 1 5 2l-6 2c-7 0-4 2 6 4 11 1 26 2 29 0zm59-31c10-11 9-13-1-4-5 5-10 8-12 8l-4 2c0 1 2 2 5 2 4 0 7-2 12-8zm-142-5-10-4c-2 0-1 4 4 8 4 4 5 5 10 3l5-2-9-5zm112 0c1-2 5-5 11-8 8-5 22-21 42-47a15296 15296 0 0 0 137-186l28-40 34-52c0-1-78-3-222-3-120 0-171 0-177-2l-9-2 7-2 77-2c104-1 103-2-4-3-104-1-183 0-178 3l40 1c37-1 43 0 39 4-2 2-20 3-81 3-43 0-78 1-78 2l21 32a14303 14303 0 0 1 120 176 1000 1000 0 0 0 48 68c19 28 42 47 60 51l5 3c0 2 8 3 30 3l34 2c8 3 15 3 16-1zm224-344h-6l3 1 3-1zm-158-3h-27c-3 1 7 2 22 2l28-1-23-1zm35 1h-8c-2 0-1 1 3 1l5-1z"/>
  <path fill="#d3d3d3" d="m251 1104-42-2c-65-4-95-10-100-20-3-6 3-15 10-17l40-10a789 789 0 0 1 79-18c3 1 2 2-4 5s-7 3-3 3c5 0 17-3 23-5 1-1 0-2-5-2l-8-2 6-2 9-4 6-2c2 0 3-2 4-5 2-10 3-12 10-20 9-10 11-17 9-35l-1-117c-1-201-4-236-22-265l-6-13-7-7c-5-4-18-22-32-46A7738 7738 0 0 0 16 201l-9-14c-5-7-5-13 1-15 6-3 6-3 327-1 180 0 286 1 288 3 5 2 4 8-1 16a3292 3292 0 0 0-47 73 4975 4975 0 0 0-168 263l-25 38c-12 13-21 38-28 76-3 16-3 37-4 183 0 112 0 166 2 169l8 14c4 5 7 11 7 14 0 7 7 12 21 14a578 578 0 0 1 106 32 9596 9596 0 0 0-77-17l-55-13-1 2c0 2 3 3 11 4 28 4 94 22 102 28l14 1c30-4 31-4 34-1 3 2 4 11 0 15-9 12-74 19-185 19h-86zm99-11c0-3-2-3-11-2-17 2-18 5-3 5 11 0 14-1 14-3zm-71-1c-1-1 4-2 13-2l-28-3-50-3c-9-1-15 1-13 4 5 4 37 6 55 2 8-1 10-1 12 1 2 3 13 4 11 1zm15 1h-6c-2 0-1 1 2 1l4-1zm-41-18-13-2c-8 1-11 1-8 2 5 3 22 3 21 0zm150 0h-13c-9 2-9 2 4 2 10 0 12-1 9-2zm-237-6c1-2 4-4 7-4 10-2 42-13 41-14l-33 7c-46 11-43 10-33 12 14 2 17 2 18-1zm83-1c1-1 0-2-2-2l-4 2c0 1 0 2 2 2l4-2zm119-8c1-1 0-2-2-1-2 0-4 1-5 3 0 1 1 2 3 2 2-1 4-2 4-4zm-94-7 4-3-3-4c-3-2-4-4-4-6l-4-2c-5 0-5 0-2 5 2 3 2 4-1 7l-3 5c0 3 9 1 13-2zm67-29-1-4-23-2c-25-1-31 1-29 7 1 3 5 3 28 3h26l-1-4zm-8-37 1-183V622l-5-5c-3-3-6-4-15-4l-14 1c-3 2-3 10-2 185 1 127 2 185 3 187 2 3 4 4 16 3l16-2zm9-376-2-4c-1 0-2 2-2 5 0 4 1 6 2 5l2-6zm-13-51c3-1 5-2 4-4 0-1 1-3 3-3 7-3-4-5-29-5h-25l3 5c2 4 4 6 10 7 10 1 27 2 34 0zm50-24c5-2 13-12 19-22 2-4-3 0-10 8-3 4-10 8-14 10-5 3-7 4-5 5 3 2 5 2 10-1zm-129-6 4-2-13-5-10-4c-1 1 9 14 11 14l8-3zm107-5c0-2 4-5 8-8 5-2 12-8 16-13 10-10 36-43 52-66a8128 8128 0 0 1 99-134c10-12 39-55 60-87l17-26-8-1c-4-1-93-2-198-2-143 0-191-1-193-3-1-1 0-2 6-3l147-1 129-2c-5-1-84-2-175-2-232 0-259 0-259 2l62 2 62 1c2 2-2 3-10 5l-78 1-71 1c-1 1 21 37 40 64a3662 3662 0 0 1 94 139 1413 1413 0 0 0 77 104c11 10 30 22 37 22 3 0 3 1 3 3-1 2 0 3 11 2a385 385 0 0 1 63 4c5 0 8-1 9-2zm236-345-11-1c-7 0-11 1-10 2 4 1 14 1 21-1zm20 0h-4c-1 0-1 1 1 1l3-1zm-588-2h-7c-2 0-1 1 3 1l4-1z"/>
  <path fill="#cbcbcb" d="m257 1104-46-3c-60-3-92-8-99-16-3-3-3-5-2-10 2-7 2-7 45-18a781 781 0 0 0 49-12l14-3 4 1-5 3-24 7a453 453 0 0 1-55 15c-2 1 2 2 13 2 13 2 17 1 20-1 4-4 81-30 89-30l5 5c2 3 2 4-2 7l-4 4c0 3 12 1 17-2l4-4-5-3-4-5c0-3-16-6-19-4l-3-1c0-1 3-4 8-6 9-3 10-4 11-11 1-4 4-11 7-15 11-13 12-16 10-43l-1-147-2-144c-4-41-10-71-18-82l-8-14a305 305 0 0 1-48-67A7968 7968 0 0 0 18 202l-9-14c-6-7-6-14 0-16a14826 14826 0 0 1 389 2c-1 1-145 3-186 2s-197 2-195 3l111 2c49 0 59 1 50 5l-79 2-77 1c-1 1 30 48 45 69a2682 2682 0 0 1 74 110l20 29a896 896 0 0 0 53 75c12 17 30 34 42 40l15 6c1 0 3 1 3 3 0 3 2 4 19 4 19 0 47 2 52 3 4 2 13-1 13-4l8-6c12-6 36-34 64-73l52-70a2366 2366 0 0 0 127-185 10270 10270 0 0 0-384-3c-13-1-15-3-6-5a9621 9621 0 0 1 377-1l19-1-31-2h-54c-29 0-116-3-123-5-6-1 208-2 215 0 11 3 8 7-65 118a2743 2743 0 0 0-96 151 6452 6452 0 0 0-79 122c-14 16-24 51-29 95-1 12-2 79-2 175v157l8 13 9 16 4 9a822 822 0 0 1 110 31 447 447 0 0 1-100-21l-12-2c-6-1-8-1-8 1 0 3 5 5 13 5 12 0 92 22 97 27 3 2 19 1 41-2 8-1 9 0 11 4 4 9 1 14-10 18-24 9-105 15-187 15l-69-1zm95-11c1-3-13-4-57-6l-59-2c-25-2-32-2-34 0-4 3-1 5 17 7 21 2 29 2 37 0h9c1 3 11 3 51 4 29 0 35-1 36-3zm-46-1c0-2 2-2 7 0 3 2 3 2-1 2l-6-2zm99-15c3 0 5-1 5-2 0-3-32-1-35 2-1 2 1 2 11 1l19-1zm-150-2-4-2c-4 0-4-2-1-5 2-2 1-2-3-2l-6 2c0 2-5 4-10 4-7 2-8 2-4 3 8 2 29 2 28 0zm64-3h-11c-4 0-1 1 5 1l6-1zm51-12c1-3-8-2-10 1v4c2 1 9-2 10-5zm-15-12h-4c-1 0-1 1 1 1l3-1zm-12-23-1-4c0-2-45-5-50-3-4 1-7 6-5 8 0 1 14 2 29 2 25 0 28 0 27-3zm-20-37c9 0 15 0 14-1-2 0-2-39-2-183 0-178 0-183-4-187s-17-6-27-4l-7 1v184c1 151 2 185 4 189 1 4 3 5 4 4 1-2 9-2 18-3zm19-376c0-3-1-6-2-5l-2 2v5l2 4 2-6zm-6-54c-1-2 0-4 1-5 1-2 2-3 1-4a412 412 0 0 0-60-1c2 1 5 4 6 7 2 5 6 6 33 6 16 0 20-1 19-3zm47-24c4-2 19-25 19-27l-11 11c-8 8-15 13-20 15-6 2-7 3-3 4 4 2 12 0 15-3zm-85-1-12-1c-6-1-6 0-3 1l12 2c8-1 8-1 3-2zm-43-2c5 0 4-1-7-6l-15-8c-4-3-4-3-2 2 3 8 10 14 14 13l10-1zm-24 508 2-1c1 0 2 0 1 1l-2 2-1-2z"/>
  <path fill="#c3c3c3" d="m262 1104-104-7c-27-4-41-7-46-12s-3-11 2-8c6 3 7 2 2-2-3-3-4-4-2-6h22c27 3 35 3 38 0 1-2 30-12 76-27 11-4 13-3 14 2 1 4 1 6-3 8-9 6 3 9 13 2l6-4-6-7c-4-5-8-7-11-7-8 0-8-3-2-7 4-2 6-5 7-10 1-4 4-11 8-15 11-13 11-15 10-49l-2-148-2-139a195 195 0 0 0-26-97l-6-5c-6-4-20-25-49-73A9829 9829 0 0 0 7 185c-5-6-5-11 2-14l56-1a5568 5568 0 0 0 118 4l-85 3c-49 0-83 2-83 3l19 1a2434 2434 0 0 1 141 4c-3 1-38 2-79 2l-75 2a5226 5226 0 0 1 136 205 1134 1134 0 0 0 54 76c13 19 33 37 47 44 7 3 13 7 13 9 0 4 2 5 9 2h24l35 3c14 0 17 0 18-3 1-1 6-6 12-9 10-7 31-30 57-66a90565 90565 0 0 1 101-136 2595 2595 0 0 0 83-124c-1-1-58-2-127-2l-128-3c-3 0-3-1-2-3a3802 3802 0 0 1 260-2l-3-2a6073 6073 0 0 1-158-4c-3-2 16-2 82-2 47 0 87 1 89 2 4 2 4 7 0 13l-11 18a3442 3442 0 0 1-99 151 13212 13212 0 0 0-134 211c-8 6-18 33-24 66a6830 6830 0 0 0-6 350c1 6 3 12 6 17 7 9 12 18 12 22 0 2 3 6 6 9 6 6 6 7 3 7l-9-2c-3-2-5-2-7 0-3 3 3 7 10 7s10 1 45 10c27 7 48 13 56 17 6 3 8 3 26 1 11-2 21-3 23-2 4 2 6 9 2 14-5 8-25 12-91 19-23 2-144 4-169 2zm91-9 5-4a4701 4701 0 0 1-113-7c-38-1-47-1-45 3 1 4 11 5 52 7 79 4 99 4 101 1zm62-19c2-1-1-2-8-3-11-1-34 2-36 5-2 2 40 0 44-2zm-158-1-4-2c-3 0-4-3-1-4l1-3c-2-3-8-2-11 1l-10 4-12 2c-5 1-4 1 2 2 10 2 36 2 35 0zm92-5c2-1-8-1-21-1l-26 3c-3 2 43 0 47-2zm20-8 4-3-5-2c-4-1-6 0-7 1-5 8 0 10 8 4zm-2-8c0-2-16-9-17-8-2 2 8 8 12 8h5zm-23-29c-1-1-2-4-1-5 1-3-3-3-26-3l-29 1c-2 2-4 8-3 9l31 1c27 0 30 0 28-3zm-54-18c1-1 0-1-1-1s-3 0-2 1l2 2 1-2zm18-7-3-2-2 2 2 2 3-2zm16-11c12 0 15-1 13-3-2-1-2-45-2-184 0-180 0-182-4-186-3-3-6-4-17-4l-15 2c-4 4-2 367 2 375 2 4 3 5 6 2 2-2 7-2 17-2zm19-377c0-4 0-6-2-6-3 0-4 3-3 8 1 7 3 6 5-2zm-5-54c-1-1-1-4 1-5 1-2 2-3 1-4l-35-1c-32-2-36-1-24 3 2 0 3 2 2 4-1 4 9 6 34 6 19 0 22 0 21-3zm44-23c6-5 22-26 22-29l-13 11c-8 8-17 15-21 16-9 3-9 5 0 5 5 1 9 0 12-3zm-73 0c-7-3-30-5-28-2 2 2 11 3 24 3 7 1 7 0 4-1zm34 1h-5c-1 1 0 1 2 1l3-1zm-82-6-11-4c-6-2-15-8-20-12-8-7-9-8-4-2l5 8c0 2 2 5 5 8 5 5 6 5 15 4l10-2zm-130 534 21-6a2138 2138 0 0 0 32-5l-6 2-20 6c-14 5-33 6-27 3zm300-14c-41-10-50-13-43-15 3-2 62 15 63 17 1 3-3 3-20-2zm-243 1c0-2 9-5 11-3l-4 3c-7 2-7 2-7 0zm28-866c0-3 10-4 63-4 55 0 75 1 65 4-7 2-128 2-128 0zm39-9-31-1-33-2c-2-1 40-1 94-1l98 1a1827 1827 0 0 0-127 3zm159-3 17-1 16 1c-2 3-33 3-33 0z"/>
  <path fill="#b7b7b7" d="m280 1104-55-3c-76-3-111-9-115-19-2-5 0-6 6-3 7 2 8 0 1-4-3-1-4-3-4-4 1-3 5-3 38-1 18 2 22 2 24-1a7903 7903 0 0 0 79-28c10-3 15 5 7 10-2 2-4 4-3 6 2 4 12 2 19-3l5-4-5-4-4-7c0-2-2-3-7-4-8 0-11-4-4-6 4-1 5-2 6-9 1-5 4-11 8-16l9-13 1-54-2-150-2-121a198 198 0 0 0-25-91l-9-12c-6-6-15-18-20-26A9780 9780 0 0 0 15 198l-7-12c-6-7-6-10 0-14 4-2 10-3 50-2a4267 4267 0 0 0 123 4l-15 1c-34-1-151 1-152 2v3l77 2 80 1h5l-5 2-76 1-73 2c-2 2 16 32 41 66a1733 1733 0 0 1 72 109l22 32a1261 1261 0 0 0 54 76c11 16 31 36 45 43 7 4 14 8 14 10 2 5 11 11 22 12 22 2 61 3 59 1l-26-3a314 314 0 0 1-48-7c2-2 30-2 36 1 8 4 42 2 44-3l11-9c12-7 41-40 69-79a5332 5332 0 0 1 84-114c26-36 91-133 89-134l-109-2c-115 0-150-1-145-4 2-2 197-2 222 0 13 0 34-1 35-3 1-1-25-2-74-3a5098 5098 0 0 1-76-4l77-1c92 1 92 1 82 17l-20 31a5400 5400 0 0 1-88 134 13628 13628 0 0 0-133 209c-13 13-25 53-29 93l-3 177v159l7 9 9 17c1 4 4 9 6 11 5 6 4 7-4 6-6-1-8-1-8 1 0 5 3 7 23 10 24 4 75 18 86 24 7 4 8 4 24 2l22-4c4 0 5 0 8 4 4 7 2 12-7 16-11 5-24 7-71 12-38 4-129 6-164 4zm75-9 6-3 4-1a5337 5337 0 0 1-164-6c-11 5 1 7 62 10 73 3 87 3 92 0zm67-19c1-1 0-2-4-3-10-2-28-1-42 2l-14 4 29-1 31-2zm-163-1c0-1-1-2-3-2-4 0-5-2-2-4 7-5-6-7-15-2l-20 4c-15 1-17 3-4 5 17 1 44 1 44-1zm-64-3h-4c-1 1-1 1 1 1l3-1zm163-4c15-6 17-7 13-13-1-2-5-5-8-5l-7-3c-1-2-8-3-8 0 0 0 2 3 6 5 7 6 7 12-1 14a348 348 0 0 1-80 5c-3 3-1 3 35 2 33-1 41-2 50-5zm-18-11h-4c-1 1-1 1 1 1l3-1zm-6-29 16-1c-6-2-8-5-6-8 2-2-2-2-27-2-27 0-29 0-31 3-4 8-1 10 17 9l31-1zm-43-22c-2-2-5-2-5 2l4 1c3 0 3 0 1-3zm26-6c5-1 5-2-3-2-6 0-8-1-8-4 0-4 2-5 20-5h14l-2-4c-3-3-2-362 1-364s6-13 4-15c-3-3-6 1-6 6 0 7-2 7-7 2-3-3-20-4-30-1l-5 1 1 185a1408 1408 0 0 0 6 198c-1 4-1 5 4 5l11-2zm25-440c1 0 0-2-2-2-4-3 0-6 7-6l7-1-7-1c-12-3-80-5-77-2l6 2c3 1 5 2 5 4 0 4 4 6 16 7 10 2 43 1 45-1zm54-39 10-15 8-13c4-7 5-9 2-6-35 41-36 42-48 46l-11 5 8 1c12 1 19-3 31-18zm-149 12c1-2 5-2 10-1 11 1 9-2-5-6-8-2-13-6-22-14-13-13-15-13-6-1l11 16c6 8 10 10 12 6zm-104 529 6-2c3 0 4 1 1 2l-6 2c-4 0-4 0-1-2zm294-11a3047 3047 0 0 0-46-13c-4-2-4-2 3-1l17 3 22 6c17 5 21 8 4 5zM219 185l23-3c48-2 102 0 96 3-3 2-118 2-119 0zm-6-11c-1-2 20-2 60-2s61 0 61 2c-2 2-119 2-121 0zm135 0c-2-2 2-2 12-2l14 1c-2 1-24 2-26 1zm-147-2h3c1 1 0 2-2 1-2 0-3 0-1-1z"/>
  <path fill="#a7a7a7" d="M282 1104a3030 3030 0 0 1-153-13c-17-4-25-13-10-11l8 1-6-4c-11-7-8-8 10-7a7513 7513 0 0 0 129 7l43-3c38-1 54-3 68-10l7-4-5-5c-6-5-16-10-23-10-6 0-5 3 3 8 11 7 8 11-11 14-15 3-61 3-63 1-2-3-7-2-13 2-3 2-6 3-8 2-4-1-4-1 1-6l11-7 9-5c4-3 4-3-1-8-3-3-5-6-4-7 0-2-1-3-6-4-8 0-11-4-5-6 3-1 4-3 5-8 1-4 4-11 8-15 10-13 13-19 11-27l-3-166c-2-148-2-162-6-180-5-29-8-39-15-49l-6-12c0-2-2-4-6-6-6-4-15-17-37-54A9823 9823 0 0 0 10 188c-3-3-5-8-5-10 0-8 6-9 45-8a2695 2695 0 0 0 99 4 730 730 0 0 1-118-1l-10 2c-6 0-8 1-8 3 0 3 3 3 20 3 21 0 27 1 27 4 0 1-9 2-20 2l-20 1c-1 1 19 33 41 65l33 49c76 115 119 176 138 195 7 6 16 14 23 17 20 10 19 19 0 13-14-5-19-8-28-19l-10-8c-2 1 5 12 7 12l4 6c7 13 16 20 21 15 2-2 15-1 47 4 19 2 80 3 85 0a319 319 0 0 0 52-74c-10 14-41 52-48 59-11 11-27 16-38 12l-7-2 7-1c5-1 9-3 11-5l11-10c12-7 36-36 64-73a1860 1860 0 0 1 65-87l28-39a3637 3637 0 0 0 84-123l4-4-6-2-17-1c-19 0-14-4 6-4 14 0 18-1 18-3 0-3-53-6-81-4-22 2-58 0-58-3s138-1 145 2 7 3 0 14a5984 5984 0 0 0-66 102 2821 2821 0 0 0-102 158l-26 42c-21 35-41 67-47 73-13 14-24 48-29 90-1 16-2 64-2 179v158l8 12c4 7 8 14 8 17 0 2 1 5 4 7 4 5 5 10 0 8-7-3-9-2-9 3 0 4 1 4 9 6 41 8 93 22 97 27 2 2 5 3 19 2l26-3c9-1 10-1 11 4 4 15-7 19-82 26-39 3-119 6-158 4zm83-11 5-4-66-2-82-4c-13-1-18-1-22 1-3 2-4 4-3 4a524 524 0 0 0 168 5zm62-17c9-1 10-1 6-3-11-4-36-4-57 1-15 3-18 4-14 5 6 1 50-1 65-3zm-84-18c2 0 3-1 3-2 0-2-11-2-12 0-2 3 1 4 4 3l5-1zm-26-22h-10c-3 1-1 1 5 1l5-1zm35-7c4-2 2-5-2-5-5 0-7-3-2-5l4-2-67 1-2 6c-1 3 0 4 3 5h66zm-59-22-4-3c-2 0-3 1-4 3s0 2 5 2 5 0 3-2zm52 1h-6c-2 1 0 1 3 1l3-1zm-21-8c1-1-3-2-8-2-6-1-9-2-9-4-1-3 1-3 16-3 16 0 21-2 15-5l-1-181c0-160 0-181 2-184 5-4 6-16 3-16-4 0-8 4-6 8 1 4 1 4-7 0-7-4-29-3-33 1-2 2-2 42-1 185a1388 1388 0 0 0 6 199c-1 4 0 4 11 4l12-2zm-15-425h-5l2 1c2 0 4 0 3-1zm-17-2h-6c-2 1-1 1 3 1 3 0 4 0 3-1zm63-1-4-1c-1 1-1 1 1 1h3zm-6-13 5-2-6-1c-7-2-7-2-1-2 7 0 12-3 9-5-3-1-86-5-88-3l1 3c1 1 2 4 1 5 0 2 6 4 24 7 13 3 48 1 55-2zm-97-11c-1-2-2-2-2-1l1 4h2c1-1 0-2-1-3zm-74 522c-2-2 7-6 45-18 34-11 37-12 40-8 2 3 2 4-3 8-3 2-5 5-4 7s0 3-3 3l-10 2c-9 4-64 9-65 6zm154-538h4c1 1 0 1-2 1-3 0-3-1-2-1zm-37-2c-3-2 0-4 8-3l7 3c0 1-14 2-15 0zm-14-2c1-2 2-2 4-2l4 2-4 1c-3 0-5 0-4-1zM65 185c-2-3 6-4 20-3 8 1 12 2 10 3-3 2-29 2-30 0zm67 0c0-1 1-2 4-2 5 0 5 0 3 2-4 2-5 2-7 0zm16-1 8-1 8 1c-1 2-14 2-16 0zm78 1c-3-1 19-2 49-2 37 0 54 1 52 2-3 2-91 2-101 0zm149 0c-21-3 6-4 93-3 114 1 106 1 106 3s-185 2-199 0zm-147-11a598 598 0 0 1 103 0H228zm-61-2h3c1 1 0 2-2 1-2 0-3 0-1-1z"/>
  <path fill="#979797" d="M275 1103c-103-4-155-10-163-19-3-5 0-6 6-3l10 2c3 0 2-1-4-5-8-5-10-8-5-8l22 1a1090 1090 0 0 0 163 4c26-1 44-3 51-4 22-7 30-13 21-16l-4-2c0-3-20-10-24-9-2 1-4 3-4 5 0 4-8 6-16 4-4-1-4 0-3 3 1 4 2 4 13 4 10-1 12-1 11-4-1-4 1-4 6 0 9 7-5 11-41 13-21 1-27 0-33-2-8-3-8-5-2-12l5-5-5-4c-3-2-5-5-4-6s15-2 32-2c25 0 30 0 33-3 2-2 5-3 7-2 4 1 11-4 9-7l-4-2c-5 0-7-3-2-4 9-3 1-5-28-5-35 0-40 1-40 8 0 6 3 7 26 7 10 0 19 1 19 2 0 3-56 5-65 2-3-1-3-2 2-4 3-2 5-6 6-11 0-4 4-10 7-14 12-15 12-17 11-30l-2-87c-1-117-4-236-7-255-4-23-9-39-16-50l-5-12c1-1-1-4-5-5-7-4-22-24-32-43l-16-27a6215 6215 0 0 1-103-163l-26-42A3368 3368 0 0 1 5 178c0-5 7-8 18-8 8 0 8 0 3 3-3 1-6 2-8 1-4-1-7 5-3 7 1 1 9 2 18 1h20c10 3 3 5-16 5-14 0-19 0-18 2a5364 5364 0 0 1 92 139 2449 2449 0 0 0 104 149c14 19 25 30 40 38 9 4 13 8 13 11 1 4 1 4-5 3-14-3-27-11-40-25l-13-13 4 9c4 8 22 32 28 36 1 1 4 0 5-1 3-2 21-2 44 2 22 3 85 4 90 1 6-3 28-28 31-35 1-4 9-17 18-30 16-26 25-40 22-37l-27 35c-39 53-51 64-68 64-9 0-11-3-4-5 4-1 6-3 6-4l9-8c5-3 16-13 25-23a1127 1127 0 0 0 76-99 3289 3289 0 0 0 144-207c0-1-7-2-16-2s-16-1-15-2l17-1c16 0 17 0 16-6 0-4 8-2 9 2a749 749 0 0 0-25 42l-44 68a2680 2680 0 0 0-102 158l-30 49a582 582 0 0 1-53 80c-5 10-13 37-17 59-4 20-4 27-5 187 0 132 0 167 2 171l9 14 6 13 4 9 4 4-7-1c-8-2-10 0-7 7 2 4 3 5 12 6 22 2 89 20 93 25 2 3 22 3 40 0 15-2 19 0 19 8-2 10-22 15-88 21-67 5-94 6-160 3zm92-6c2-1 3-2 2-3l7-3 7-2-10-1-33-1-61-2-56-3c-19-1-28 1-28 6a565 565 0 0 1 20 6c16 3 146 5 152 3zm27-2h-6c-2 0-1 1 2 1l4-1zm12-16 34-3 7-1-11-3c-19-6-51-3-85 7-9 2 21 2 55 0zm-116-20h-5c-2 1 0 1 3 1s3-1 2-1zm21 0h-5c-1 1 0 1 2 1l3-1zm-15-49-3-5c-4-3-5-3-8 0s-3 3 0 5c5 1 9 2 11 0zm54-1c0-2-11-2-23 0-7 2-7 2 7 2 9 0 16-1 16-2zm-23-9c2-1 0-2-6-2-11 0-16-2-14-6 1-1 7-2 18-1l17-1-2-5c-3-3-3-19-3-182a1084 1084 0 0 1 4-198l-6 3c-2 3-4 3-10 2-9-1-30 1-32 4l-1 9 3 184a1687 1687 0 0 0 5 195c1 2 24 0 27-2zm-23-396-3-2-4 2c0 2 1 2 4 2s4 0 3-2zm13 1-5-2-5 2 5 1 5-1zm-11-20h-4c-1 0-1 1 1 1l3-1zm19-1h-11c-2 1 0 1 6 1l5-1zm14-9a493 493 0 0 1-58-3c1 1 4 3 8 3h50zm19-5h-4c-4 0-8 2-9 3s0 2 5 1c3-1 7-2 8-4zm-89 0c0-2-6-3-7-1 0 1 1 2 3 2l4-1zm78-9c6-2 9-3 10-7l1-5a750 750 0 0 0-91 0l1 4c-2 3 2 5 18 8 18 2 51 3 61 0zm-96-16c-4-4-4-1-1 6 2 3 3 3 3 0 1-2 0-5-2-6zm-70 524c-1-2 2-3 34-13 39-13 44-15 46-14 3 2 2 7-2 9l-5 6c-2 5-11 7-27 7l-18 3c-15 3-27 4-28 2zm149-37 5-2 4 2c1 1-1 2-4 2-4 0-6-1-5-2zM66 185c0-1 4-2 13-2 13 0 13 0 5 2-12 2-16 2-18 0zm404 0c-8-1 10-2 44-2 33 0 58 1 58 2 0 2-80 2-102 0zm-214-1h7-7zm16 0h5l-3 1c-3 0-3-1-2-1zm101-1a479 479 0 0 1 76 1 437 437 0 0 1-76-1zm-269-9c-2-1 5-2 20-2 19 0 21 0 13 2-14 2-28 2-33 0zm393 0h48l35 1h-48l-35-1zm89 0h5c1 1 0 1-3 1s-4 0-2-1z"/>
  <path fill="#878787" d="M257 1102c-77-4-114-8-133-13-16-4-16-10 0-6 13 3 16 1 5-4-19-9-15-10 42-5 44 4 61 7 40 7-6 0-11 1-16 4l-7 5 13 2c32 5 160 9 191 5 12-1 13-2 8-3-3-1-5-3-4-4s-13-2-108-6l-59-3s8-2 18-2l24-2 33-2c31 0 61-4 73-9 5-3 6-9 1-11l-6-5c-3-3-3-3 1-3h6c51 12 82 21 81 24 0 2-22 1-28-2-5-3-49-3-51 0-2 2-25 8-32 8l-6 2c-2 4 90 0 151-6 20-2 24-2 26 0 5 5 3 11-6 15-21 8-110 16-190 15l-67-1zm-72-13h-6c-2 0-1 1 2 1s5 0 4-1zm328-10-2-2-4 2c-1 1 0 2 2 2l4-2zm-327-12 36-13 34-11c2-1 4 0 6 2s2 3-1 3l-8 7c-6 5-7 6-22 6l-22 4-20 4c-8 1-8 1-3-2zm94-2c-2-2-1-3 5-3 10-1 11-6 1-6-7 0-7 0-3-3 3-2 3-3 1-4l-7-5-4-4 33-1c21 0 33-1 35-3 4-3 16-1 17 4 1 3 0 3-5 3-7 0-10 2-11 6-1 3-3 4-11 3-9-2-9-2-8 3s1 5 11 5c13 0 14 0 14 3s-10 5-40 5c-20 0-26-1-28-3zm34-5c0-2-5-4-11-4-5 0-6 3-1 5 6 1 12 1 12-1zm38 1c0-2 1-3 2-3 3 0 3 5 0 5-2 1-3 0-2-2zm-80-27c-10-1-11-1-8-3s5-6 6-10c0-4 4-10 7-15 8-10 13-20 11-24 0-2-2-75-2-163-1-94-3-164-4-171-4-27-6-34-9-45l-8-19c-8-11-7-13 1-13 6 0 7-1 5-2l-10-2c-5 0-9-2-13-5-5-4-24-33-27-41-2-5 4-1 13 8 7 8 12 9 15 6 2-2 23-1 53 3a447 447 0 0 0 69 4c9 3 37-26 48-49l13-23c15-22 35-55 32-52l-25 33c-37 51-55 73-67 79-10 5-20 7-20 3 0-1 1-3 3-3s4-3 5-4a378 378 0 0 0 73-80l33-45a7715 7715 0 0 1 110-155c28-42 34-50 37-51 5-2-14 28-65 104a3139 3139 0 0 0-112 176c-8 11-16 23-18 28-11 20-33 55-38 60-10 9-20 35-27 71-4 19-4 28-5 182v170c1 5 4 12 7 16l8 16 5 11c2 1 3 3 2 4s-9-3-11-6c-1-1-4-3-7-3l-5-2 5-3c5-3 6-4 2-5-2-1-4-2-3-4 2-4-5-5-26-2-21 2-21 3 1 5 15 1 14 1-12 2l-29 1c-2 1-3 4-4 8l-1 6 12 1h15l5 1c2 1 0 2-7 2l-16 1-17-1zm29-23-6-5c-5-4-6-4-10-1-7 5-6 6 5 6h11zm27-11 6-1-5-1-13-2c-5 0-8-1-7-2 0-2 6-3 17-3 11 1 16 0 16-2l-2-3c-1-1-2-64-2-182a1350 1350 0 0 1 2-199l-6 2c-4 4-6 4-4 0 1-4 0-4-18-4-24-1-23-1-22 5 2 10 3 68 4 220a1336 1336 0 0 0 6 170l-2 6 12-1 18-3zm-31-392c4-2 8-2 7 0s-3 2-6 2-3 0-1-2zm43-24c2-1 2-2 1-3l-5 1-13 1-17 1c-5 0-7 1-6 2 2 3 34 1 40-2zm7-9c15-3 19-7 6-5l-42 2c-24-1-32 0-31 2l25 3 27 1 15-3zm8-16c13-4 20-7 11-6-4 1-5 1-5-2s-19-5-64-5l-33-1 1 5 2 7c3 3 27 6 51 6 19 0 26 0 37-4zm-99-9c0-3-7-11-9-9-1 1 0 4 1 7 3 6 8 8 8 2zm-7-26c-8-3-13-8-25-21l-21-24c-10-12-9-8 1 6l8 16c0 4-8-6-17-21A7688 7688 0 0 0 47 243a1550 1550 0 0 1-37-56c-5-7-6-12 0-13 2 0 3 0 2 1-1 2 0 4 1 5 2 2 7 3 23 3l21 1H39c-14 1-19 2-20 4-1 3 16 30 36 58a4127 4127 0 0 1 89 132l24 36c16 25 24 37 32 46l16 21c13 17 26 28 40 35 11 5 15 12 7 11l-14-3zm366-336c0-5 3-11 5-11 4 0 5 4 3 8s-8 6-8 3zm-545-4h6-6zm329 0h10-10zm18 0h8-8zm92 0h8-8zm32 0h4l-2 1c-3 0-3-1-2-1zm-32-10h9c2 1 0 1-4 1l-5-1zm-488-4 5 1h-3c-3 0-4 0-2-1z"/>
  <path fill="#777" d="M285 1102c-111-4-156-9-168-17-7-4-4-5 9-1 15 4 19 1 5-5-10-4-12-8-5-8 13 0 74 7 76 8 2 3-10 7-19 7l-8 2 2 2a1603 1603 0 0 0 46 5c23 3 46 3 100 4 69 0 93-1 93-5l-8-2c-8 0-9-2-1-4l-50-2c-85-2-108-4-88-8l40-2 42-3c9-2 14-2 13 0-1 1-7 3-13 3-12 2-16 4-9 5a1222 1222 0 0 0 162-8c8 0 8 0 4 3-5 4-4 7 2 5 2 0 4-2 4-5 0-8 6-5 7 3v6l-11 3c-28 10-145 17-225 14zm143-17h-3c-2 1-1 1 1 1s3 0 2-1zm-191-4h7c2 1 0 1-3 1l-4-1zm-27-1h4l-3 1c-2 0-2-1-1-1zm223-11c-3-2-12-3-24-3h-19l-6-7c-3-3-6-6-8-6l-2-3c0-3 1-3 4-2l22 5a427 427 0 0 1 60 17c2 2-20 2-27-1zm-239-4 65-22c1 0 2 1 2 3s-1 3-3 3l-6 3c-2 2-9 5-16 6a264 264 0 0 0-40 8l-7 1 5-2zm92 1-5-2h5l6-1c1 0 13-2 28-2 25 0 34 2 19 5-10 2-47 2-53 0zm67-6 2-2 2 2c0 1-1 2-3 2-1 0-2-1-1-2zm-41-3-13-2c-6 0-10-2-15-6l-8-8c0-2 55-1 56 1 1 1 3 0 5-2 6-5 19-5 20 0 0 3-1 3-7 3s-8 1-10 4c-1 3-4 4-10 4-8 0-9 0-8 3 1 2 0 4-1 5-3 2-3 2-9-2zm-46-27c2-2 4-7 4-11 2-7 2-7 9-7 10-1 15 1 8 3-5 1-6 2-7 9 0 6 0 8 3 7 1-1 4 0 6 1s0 2-12 2c-14 0-14 0-11-4zm98-1-6-4-5-3v-2c4-5 8-4 12 4l3 8-4-3zm-12-19-3-4-24 1c-19 1-24 0-23-1l8-2c10 0 28-4 28-6 0-1-6-2-15-2-8 0-15-1-15-2 0-2 18-3 29-1 4 1 5 1 5-3l-2-6c-3-3-1-359 2-363l2-10 1-7-12-1a1218 1218 0 0 1-38-1l-6 1 1 16 3 191a1239 1239 0 0 0 5 193c2 3-2 3-7 0-3-2-4-1-7 2-7 6-6 1 1-9 6-9 7-10 4-15-1-3-2-41-3-144l-2-167a208 208 0 0 0-25-96l8-2c6-1 9-1 12 1 3 3 12 4 30 5 27 1 35 4 13 4a255 255 0 0 0-21 2l-2 2c0 2 23 2 36 0 8-1 9-1 8-4-1-2 0-4 3-5 8-2 21-9 20-9l-19 2a243 243 0 0 1-97-7c-4-2-26-34-26-38 0-6 21 13 23 21s5 10 9 8c3-2 5-2 9 2a148 148 0 0 0 109-3c4-4 5-7 1-6-6 3-2-3 4-6l11-8 6-6c1 0 5-3 8-8 7-9 12-14 8-7-9 16-28 46-34 52-11 11-18 31-25 67-4 20-4 29-5 130l-1 169v62l7 10 7 12c0 3-6 1-9-4zm-96-466c-4-2-7-7-5-9 1-2 8-2 40 3l49 2c22 0 29 1 28 3s-13 2-55 2l-57-1zm97-11c-1-1 1-2 3-4l5-4 9-7c9-7 18-16 37-38a977 977 0 0 0 60-79 2763 2763 0 0 0 141-199l5-7-3 7-64 99-56 88c-33 53-64 99-65 99-3 0 1-7 13-26 16-23 32-50 32-52s-9 9-20 24l-58 79c-10 12-14 15-23 18-11 4-15 5-16 2zm-104-10c-13-6-17-9-35-32l-23-26c-8-8-23-30-71-106A14396 14396 0 0 1 6 176c2-4 5-3 5 1 0 2 2 5 4 6s3 3 2 4c-1 2 21 37 39 62 17 23 22 30 46 68l36 53c16 24 34 52 36 60l18 23c9 9 21 24 28 33 14 18 20 22 36 30 6 3 11 7 11 8 0 4-5 4-18-1zm-49-37c-6-10-5-12 2-2 3 4 4 8 4 9l-6-7zm415-299 3-6c2-4 3-4 4-2s0 5-1 7c-3 3-6 3-6 1zm-567-4h4c0 1-1 2-3 1-2 0-2 0-1-1z"/>
  <path fill="#676767" d="M297 1102c-5-1 9-2 39-2a1384 1384 0 0 0 70-1c-4 3-97 5-109 3zm-71-3a370 370 0 0 1-107-16c12 3 26 4 26 2l-10-5c-12-5-15-10-4-8a894 894 0 0 0 69 7c3 3-10 7-20 7-9 0-12 3-6 5l13 1 29 3a368 368 0 0 0 63 5 1049 1049 0 0 1-53 0zm188-1 9-3 9-2-8-1c-11 0-14-3-5-4l14-1c4-1 7-1 8-3a682 682 0 0 1-57 1c-29 1-109-2-113-3-7-3 6-5 34-5 25 0 30 0 33 3 1 2 6 3 11 3a2913 2913 0 0 0 158-10l-1 4c-3 5-2 6 2 5 3 0 5-2 6-4 3-6 6-5 7 1 1 8-18 13-61 17-39 3-46 3-46 2zm22-30c-8-3-15-4-26-3-10 0-16 0-17-2l-6-3-3-4-5-4c-4-1-5-2-3-3 1-2 3-2 5 0l19 5c19 3 52 14 50 16-1 2-1 2-14-2zm-144-2c-1-3 4-5 11-3l23-1c16-1 23 0 18 3-3 2-50 3-52 1zm-88-4 7-3 19-6c7-2 13-4 14-3 2 1-3 4-9 6l-17 4c-14 4-16 5-14 2zm106-8c-3-3-5-3-12-2-5 1-9 0-9-1l-6-4c-3-1-5-3-5-4s7-2 28-3c9 0 21 2 28 5l5 3-9 1c-8 1-9 1-9 5 1 6-5 6-11 0zm-53-9c0-1 1-2 2-1l2 2-2 1-2-2zm81-4 3-3c3-3 17-1 16 2-1 2-19 4-19 1zm-71-9 2-3 2-5 2-8c1-4 2-5 4-3s2 6 1 15c0 3-11 7-11 4zm90-8c-5-4-4-6 1-5 2 0 4 2 5 4 0 4-2 4-6 1zm-4-15c-3-4-7-4-31-2l-14-1 16-3c15-2 15-2 18-8a6686 6686 0 0 1 3-383c0-8 0-8-7-9a501 501 0 0 1-40-2c-2 1-4 2-6 1-3 0-3 1-3 12l-1 13c-2 1-1 3 1 8 3 6 3 19 4 176v171c-5 6-5-16-7-168-2-148-2-163-6-181a147 147 0 0 0-19-59c0-2 16-2 19 1l7 2 23 1c20 0 22 4 2 4l-16 2c-7 3 6 4 30 3 23-1 27-2 21-5-3-2-2-3 7-7 11-5 17-6 15-1-10 24-16 49-19 81l-3 179v159l6 8c6 8 8 12 4 12l-4-4zm-73-5 3-4 3-5 4-5c6-5 9-1 8 9-1 6-2 7-5 3-3-2-4-2-7 0-4 4-6 4-6 2zm30-10c0-1 6-2 13-2 8 0 14 1 14 2s-6 2-14 2c-7 0-13-1-13-2zm-7-423a338 338 0 0 1-54-8c-1 0-24-34-24-36l2-1c3 0 18 17 21 24 3 5 5 6 8 5s7 0 11 2c14 8 65 10 89 4 15-4 17-6 28-19 9-10 23-22 19-16-21 36-27 43-36 42-3-1-13 0-22 2l-18 2-24-1zm37-26-42-1-44-2-2-6c0-3 1-3 4-2l22 3 34 4h28c14-1 28 1 22 3-4 2-20 3-22 1zm19-17 12-11c10-6 28-25 49-53a9771 9771 0 0 1 62-79 21664 21664 0 0 0 126-180c0 2-35 56-50 77-13 19-27 40-74 115-32 51-46 72-46 69l25-40c8-13 15-27 13-27l-27 35c-21 31-54 74-63 84s-18 15-28 15c-4 0-4 0 1-5zm-108-5c-13-4-18-9-41-37l-24-29a762 762 0 0 1-67-101 2682 2682 0 0 1-66-109c1 0 26 35 45 66l37 54a200 200 0 0 1 31 52c2 0 3 2 3 4 0 5 9 17 24 33l26 30c15 19 21 23 35 31 11 5 14 9 10 10l-13-4zm178-44 3-5c3-2 3-2 1 2-3 4-4 6-4 3zM11 185l-4-7c0-3 0-3 2 0l6 6c1 2 2 3 1 4l-5-3zm606 0 2-4c2-3 5-1 3 3-1 3-5 4-5 1z"/>
  <path fill="#575757" d="m351 1102 7-2c4 0 7 0 6 2l-8 1c-4 0-6 0-5-1zm-160-5a288 288 0 0 1-69-12l18 1c11 0 11 0 5-2l-13-6c-4-1-6-3-6-4 2-2 67 3 72 5 7 3-6 6-25 6-17 1-21 2-13 4a522 522 0 0 0 62 8h-31zm235-1 9-2c4 0 10-4 5-4-4 0-1-3 4-5l6-1-7-2c-7-2-5-2 21-5 45-3 42-4 39 5-1 3-1 3 4 2 3-1 7-3 8-5 3-4 6-3 6 1 0 7-26 13-69 16-29 2-31 2-26 0zm-1-7h4c1 0 1 1-2 1s-4 0-2-1zm-54-4c-3-2 22-4 42-4 11 0 12 0 5 2-12 2-45 4-47 2zm-73-2c-38-3-33-4 12-5 16 0 20 1 24 3 3 3 3 4-4 3l-32-1zm59 0h4c1 0 1 1-2 1s-4 0-2-1zm-62-19c1-2 3-2 6-1 4 2 4 3-2 3-5 0-6-1-4-2zm19 0h15c3 1 0 1-8 1l-7-1zm26-1h4l-3 1c-2 0-3-1-1-1zm57-2c-2-2-5-3-7-3l-5-2c-3-3 0-5 8-3l18 4c15 3 15 6 0 6-8 0-13 0-14-2zm-84-5c-2-1-2-3-1-5s-1-2-9-2c-10 1-21-2-24-6-1-2 36-2 45 0 9 3 9 6 0 6-6 0-8 2-4 5 2 1 0 4-3 4l-4-2zm28-14c-2-3 0-4 7-4l7 1c0 2-12 4-14 3zm-71-12 2-9c1-8 2-10 4-6 3 4 3 12 0 15s-8 3-6 0zm88-6-2-4c1-1 3-1 4 1 5 4 3 6-2 3zm-4-15c-1-2-3-4-8-5l-7-1 3-7 3-7 3 5 7 11c5 6 5 8 2 8l-3-4zm-41-4c-1-1 1-1 4-1l13-1h6c-3 3-20 4-23 2zm-23-4-4-4c0-3 5-8 8-8 4 0 6 5 3 8-1 2-2 4-1 5 2 2 0 2-6-1zm28-7c-8-1-8-1 3-1 9 0 12 0 10 1l-4 2-9-2zm25-9a7003 7003 0 0 1-1-383c-3 1-4 1-25-1h-29v12c0 6-1 13-3 14-1 1-1 3 2 6 2 2 3 9 4 23 3 27 3 325 1 325-4 0-4-19-6-177-2-157-3-178-9-192l-3-9c0-2-2-9-6-16-7-13-6-14 3-14 5 0 11 5 11 9 0 3 4 4 21 6h24c23 0 29-2 25-7-2-2-2-3 0-4 4-3 15-7 16-6s-1 7-4 14c-5 12-10 35-14 62-2 9-3 69-4 177-1 130-1 162-3 161zm-56-402c-3-3 0-5 11-5 13 0 20 4 7 4l-12 1h-6zm32-3v-2l2 2v2l-2-2zm-35-11c-34-5-33-5-39-12-8-9-18-27-17-29 2-2 16 13 19 21 2 6 3 7 9 7l11 2c11 7 62 9 85 4 18-3 22-6 33-19 7-10 14-16 14-12l-7 13c-9 15-17 24-23 23-2-1-11 0-19 1-16 3-50 3-66 1zm58-25c-3-1-1-1 8-1 8 0 11 0 9 1-3 3-10 3-17 0zm-73-1c-12-1-20-4-17-7 1-1 35 2 48 4 4 1 6 2 5 3-1 2-14 2-36 0zm93-16 12-11a547 547 0 0 0 84-101c0-2 4-6 8-9l7-5-4 5-6 8-42 58-33 44c-8 8-12 12-19 14-13 5-14 4-7-3zm-108-3c-15-4-22-11-50-46a421 421 0 0 1-59-81 1397 1397 0 0 0-50-80 895 895 0 0 0-30-48c-2-6 9 7 14 16l12 19a528 528 0 0 1 34 51c7 12 14 23 14 26 1 3 5 9 9 13l8 12c0 2 2 7 5 11l11 15c3 6 13 18 23 28l23 25c11 16 25 28 36 32 14 6 14 11 0 7zm206-93 2-2-1 3c-2 2-2 2-1-1zm19-33c-3-3-1-7 13-25a1877 1877 0 0 0 61-87c2-2 2-2 1 1a4973 4973 0 0 1-75 111zm81-123a1005 1005 0 0 1 29-40c-12 20-34 51-29 40zm58-92 2-2 1 2-2 2c-1 0-2-1-1-2z"/>
  <path fill="#303030" d="m463 1091 19-2c11 0 12 0 7 1l-19 3c-11 1-12 1-7-2zm-318-2h6c1 1-1 1-4 1s-4-1-2-1zm353-1 5-2 4 1-9 1zm-41-5c0-4 1-4 33-7 12-1 13-1 12 2s-2 4-6 3l-15 2c-5 2-13 3-17 3-6 0-7 0-7-3zm-297 0c-16-2-29-5-29-8 0-1 3-2 6-1l22 2c38 3 39 3 35 6-3 3-11 3-34 1zm357-3 1-3 1 3-2 3v-3zm-221 0h5-5zm-12-35c-4-2-3-2 16-2 24 0 29 3 6 3-11 1-21 0-22-1zm-10-22c0-1 1-2 2-1l1 2c-1 3-3 3-3-1zm68-22c0-4 4-6 7-3 4 3 3 6-2 6-3 0-5-1-5-3zm-54-6c0-2 7-6 8-4 2 2-3 7-6 7-1 0-2-1-2-3zm54-22a8463 8463 0 0 1 3-351c3-18 2-25-5-21h-15l-25-2-13 1v11l-2 14c-3 4-5 2-5-4l-2-8-3-8c-1-9-7-26-9-26-3-2 0-5 5-5 4 0 6 2 8 7 3 6 3 6 18 8h61l-1 9-10 69a8658 8658 0 0 0-4 316l-1-10zm-53-7-1-160c-1-81-3-153-4-159-2-12 0-17 4-10 2 5 3 32 4 230a2139 2139 0 0 1-3 99zm0-386c-2-2 4-2 8 0 2 2 2 2-2 2l-6-2zm66 0c-2-2 6-7 9-7s3 1 1 5-9 5-10 2zm-78-13-24-5c-5-1-23-26-21-29 2-1 9 7 13 15s6 9 13 9l11 3c10 4 47 7 67 5 29-3 38-7 49-21 6-9 10-11 10-8 0 4-15 25-19 28l-7 2c-2-1-12 0-22 2-23 3-43 3-70-1zm-19-27c-6-2-5-6 0-4l23 3 19 3c2 1-38 0-42-2zm105-11c0-2 3-6 7-8 8-6 14-12 29-29l12-11c1 1-21 31-29 40-4 4-15 10-18 10l-1-2zm-118-10c-7-3-13-9-20-17-16-20-21-27-19-27l7 7 17 20c9 10 13 13 22 16l11 5c0 2-10 0-18-4zm236-127c0-2 2-4 3-5l7-9c2-4 5-6 5-6 1 1-12 24-14 24l-1-4z"/>
  <path fill="url(#Z)" fill-rule="evenodd" d="M366 526c-3 2-6 6-10 7-13 4-27 1-41-1-20-2-42-1-60-10s-30-26-43-41C168 429 45 233 45 233l542-1S453 447 398 503c-9 9-21 15-32 23z" opacity=".7"/>
  <path fill="#f78282" fill-rule="evenodd" d="m128 365 88 153 26 32 15 8h4l36 7 35-1 27-3 21-9 18-19 101-166c-29 44-69 103-101 136-9 9-21 16-32 23-3 2-6 6-10 7-13 4-27 1-41-1-20-2-42-1-60-10s-30-26-43-41c-25-29-58-78-83-116h-1z" opacity=".5"/>
</svg>
