<?xml version="1.0" encoding="UTF-8"?>
<!DOCTYPE svg PUBLIC "-//W3C//DTD SVG 1.1//EN" "http://www.w3.org/Graphics/SVG/1.1/DTD/svg11.dtd">
<svg version="1.1" xmlns="http://www.w3.org/2000/svg" xmlns:xlink="http://www.w3.org/1999/xlink" x="0" y="0" width="470" height="430" viewBox="0, 0, 470, 430">
  <g id="Layer_1">
    <path d="M247.446,47.042 C236.899,56.633 237.392,70.055 234.509,82.521 C231.626,70.055 232.104,56.633 221.558,47.042 C221.255,46.74 220.89,46.465 220.587,46.128 L220.622,46.043 C225.122,46.465 229.679,46.74 234.298,46.74 C239.044,46.74 243.755,46.465 248.431,46.008 L248.466,46.043 C248.136,46.395 247.784,46.74 247.446,47.042" fill="#B08C6C"/>
    <path d="M460.304,373.039 L463.165,392.213 L419.065,409.468 L409.481,391.257 L460.304,373.039" fill="#A23338"/>
    <path d="M59.501,391.257 L49.925,409.468 L5.817,392.213 L8.687,373.039 L59.501,391.257" fill="#A23338"/>
    <path d="M339.872,377.834 L342.706,376.871 C333.896,391.946 334.69,411.387 334.69,411.387 C334.69,411.387 297.79,425.773 234.509,425.773 C234.474,425.773 234.438,425.773 234.403,425.773 L234.403,386.461 C234.706,386.461 235.058,386.461 235.353,386.461 C282.343,386.461 339.872,377.834 339.872,377.834" fill="#A23338"/>
    <path d="M234.403,386.461 L234.403,425.773 C171.192,425.773 134.3,411.387 134.3,411.387 C134.3,411.387 135.073,393.057 127.058,378.214 L127.972,377.834 C127.972,377.834 187.575,386.342 234.403,386.461" fill="#A23338"/>
    <path d="M277.153,12.533 C277.153,12.533 259.21,35.883 248.466,46.043 L248.431,46.008 C243.755,46.465 239.044,46.74 234.298,46.74 C229.679,46.74 225.122,46.465 220.622,46.043 L220.587,46.128 C209.851,36.003 191.829,12.533 191.829,12.533 L182.478,10.915 C185.733,7.006 188.946,4.861 188.946,4.861 C188.946,4.861 214.646,10.451 234.509,10.451 C254.337,10.451 280.036,4.861 280.036,4.861 C280.036,4.861 282.308,6.352 284.909,9.115 L277.153,12.533" fill="#A23338"/>
    <path d="M191.829,12.533 C191.829,12.533 209.851,36.003 220.587,46.128 C220.89,46.465 221.255,46.74 221.558,47.042 C232.104,56.633 231.626,70.055 234.509,82.521 C234.249,82.599 234.017,82.676 233.735,82.711 C220.13,86.086 203.325,72.516 190.528,58.939 C179.054,46.775 170.735,34.582 170.735,34.582 C170.735,34.582 175.538,22.116 179.37,15.408 C180.319,13.721 181.409,12.223 182.478,10.915 L191.829,12.533" fill="#A23338"/>
    <path d="M289.634,15.408 C293.466,22.116 298.247,34.582 298.247,34.582 C298.247,34.582 289.937,46.817 278.476,58.974 C265.376,72.818 248.276,86.586 234.509,82.521 C237.392,70.055 236.899,56.633 247.446,47.042 C247.784,46.74 248.136,46.395 248.466,46.043 C259.21,35.883 277.153,12.533 277.153,12.533 L284.909,9.115 C286.491,10.768 288.192,12.87 289.634,15.408" fill="#A23338"/>
    <path d="M353.864,216.72 C347.114,163.978 280.036,60.472 280.036,60.472 L278.476,58.974 C289.937,46.817 298.247,34.582 298.247,34.582 C298.247,34.582 347.171,72.938 357.696,86.361 C368.243,99.783 400.854,169.772 417.146,210.997 C433.444,252.228 467.968,348.106 464.136,360.58 C460.304,373.039 460.304,373.039 460.304,373.039 L409.481,391.257 C409.481,391.257 402.767,388.374 397.972,380.71 C393.169,373.039 386.476,369.2 378.79,347.15 C371.126,325.1 352.901,254.147 352.901,254.147 L352.304,254.105 C352.739,241.568 353.288,228.448 353.864,216.755 L353.864,216.72" fill="#D75739"/>
    <path d="M115.118,216.72 L115.118,216.755 C115.702,228.448 116.243,241.568 116.7,254.105 L116.089,254.147 C116.089,254.147 97.856,325.1 90.192,347.15 C82.515,369.2 75.813,373.039 71.019,380.71 C66.216,388.374 59.501,391.257 59.501,391.257 L8.687,373.039 C8.687,373.039 8.687,373.039 4.854,360.58 C1.022,348.106 35.546,252.228 51.837,210.997 C68.149,169.772 100.739,99.783 111.286,86.361 C121.833,72.938 170.735,34.582 170.735,34.582 C170.735,34.582 179.054,46.775 190.528,58.939 L188.946,60.472 C188.946,60.472 121.868,163.978 115.118,216.72" fill="#D75739"/>
    <path d="M233.735,82.711 L234.403,85.397 L234.403,386.461 C187.575,386.342 127.972,377.834 127.972,377.834 L127.058,378.214 C126.087,376.414 124.983,374.684 123.753,373.039 C112.257,357.697 115.118,324.144 117.052,302.086 C117.776,293.881 117.425,274.819 116.7,254.105 C116.243,241.568 115.702,228.448 115.118,216.755 L115.118,216.72 C121.868,163.978 188.946,60.472 188.946,60.472 L190.528,58.939 C203.325,72.516 220.13,86.086 233.735,82.711" fill="#B08C6C"/>
    <path d="M234.509,82.521 C248.276,86.586 265.376,72.818 278.476,58.974 L280.036,60.472 C280.036,60.472 347.114,163.978 353.864,216.72 L353.864,216.755 C353.288,228.448 352.739,241.568 352.304,254.105 C351.565,274.819 351.214,293.881 351.952,302.086 C353.864,324.144 356.733,357.697 345.237,373.039 C344.323,374.262 343.479,375.57 342.706,376.871 L339.872,377.834 C339.872,377.834 282.343,386.461 235.353,386.461 C235.058,386.461 234.706,386.461 234.403,386.461 L234.403,85.397 L233.735,82.711 C234.017,82.676 234.249,82.599 234.509,82.521" fill="#B08C6C"/>
    <path d="M191.829,12.533 C191.829,12.533 209.851,36.003 220.587,46.128 C220.89,46.465 221.255,46.74 221.558,47.042 C232.104,56.633 231.626,70.055 234.509,82.521 C234.249,82.599 234.017,82.676 233.735,82.711 C220.13,86.086 203.325,72.516 190.528,58.939 C179.054,46.775 170.735,34.582 170.735,34.582 C170.735,34.582 175.538,22.116 179.37,15.408 C180.319,13.721 181.409,12.223 182.478,10.915 C185.733,7.006 188.946,4.861 188.946,4.861 C188.946,4.861 214.646,10.451 234.509,10.451 C254.337,10.451 280.036,4.861 280.036,4.861 C280.036,4.861 282.308,6.352 284.909,9.115 C286.491,10.768 288.192,12.87 289.634,15.408 C293.466,22.116 298.247,34.582 298.247,34.582 C298.247,34.582 289.937,46.817 278.476,58.974 C265.376,72.818 248.276,86.586 234.509,82.521 C237.392,70.055 236.899,56.633 247.446,47.042 C247.784,46.74 248.136,46.395 248.466,46.043 C259.21,35.883 277.153,12.533 277.153,12.533 M170.735,34.582 C170.735,34.582 121.833,72.938 111.286,86.361 C100.739,99.783 68.149,169.772 51.837,210.997 C35.546,252.228 1.022,348.106 4.854,360.58 C8.687,373.039 8.687,373.039 8.687,373.039 L5.817,392.213 L49.925,409.468 L59.501,391.257 C59.501,391.257 66.216,388.374 71.019,380.71 C75.813,373.039 82.515,369.2 90.192,347.15 C97.856,325.1 116.089,254.147 116.089,254.147 M115.118,216.755 C115.702,228.448 116.243,241.568 116.7,254.105 C117.425,274.819 117.776,293.881 117.052,302.086 C115.118,324.144 112.257,357.697 123.753,373.039 C124.983,374.684 126.087,376.414 127.058,378.214 C135.073,393.057 134.3,411.387 134.3,411.387 C134.3,411.387 171.192,425.773 234.403,425.773 C234.438,425.773 234.474,425.773 234.509,425.773 M113.206,179.363 C113.206,179.363 114.12,195.739 115.118,216.72 M188.946,60.472 C188.946,60.472 121.868,163.978 115.118,216.72 L115.118,216.755 M8.687,373.039 L59.501,391.257 M298.247,34.582 C298.247,34.582 347.171,72.938 357.696,86.361 C368.243,99.783 400.854,169.772 417.146,210.997 C433.444,252.228 467.968,348.106 464.136,360.58 C460.304,373.039 460.304,373.039 460.304,373.039 L463.165,392.213 L419.065,409.468 L409.481,391.257 C409.481,391.257 402.767,388.374 397.972,380.71 C393.169,373.039 386.476,369.2 378.79,347.15 C371.126,325.1 352.901,254.147 352.901,254.147 M353.864,216.755 C353.288,228.448 352.739,241.568 352.304,254.105 C351.565,274.819 351.214,293.881 351.952,302.086 C353.864,324.144 356.733,357.697 345.237,373.039 C344.323,374.262 343.479,375.57 342.706,376.871 C333.896,391.946 334.69,411.387 334.69,411.387 C334.69,411.387 297.79,425.773 234.509,425.773 M355.784,179.363 C355.784,179.363 354.87,195.739 353.864,216.72 M280.036,60.472 C280.036,60.472 347.114,163.978 353.864,216.72 L353.864,216.755 M460.304,373.039 L409.481,391.257 M220.622,46.043 C225.122,46.465 229.679,46.74 234.298,46.74 C239.044,46.74 243.755,46.465 248.431,46.008 M127.972,377.834 C127.972,377.834 187.575,386.342 234.403,386.461 C234.706,386.461 235.058,386.461 235.353,386.461 C282.343,386.461 339.872,377.834 339.872,377.834 M234.403,85.397 L234.403,425.773" fill-opacity="0" stroke="#1A1919" stroke-width="4.131" stroke-linecap="round" stroke-linejoin="round"/>
  </g>
</svg>
